<svg xmlns="http://www.w3.org/2000/svg" xmlns:xlink="http://www.w3.org/1999/xlink" width="500" zoomAndPan="magnify" viewBox="0 0 375 374.999991" height="500" preserveAspectRatio="xMidYMid meet" version="1.0"><defs><g/><clipPath id="id1"><path d="M 115.511719 111 L 251.261719 111 L 251.261719 260.730469 L 115.511719 260.730469 Z M 115.511719 111 " clip-rule="nonzero"/></clipPath><clipPath id="id2"><path d="M 52.21875 59.59375 L 322.96875 59.59375 L 322.96875 330.34375 L 52.21875 330.34375 Z M 52.21875 59.59375 " clip-rule="nonzero"/></clipPath></defs><rect x="-37.5" width="450" fill="#ffffff" y="-37.499999" height="449.999989" fill-opacity="1"/><rect x="-37.5" width="450" fill="#ffffff" y="-37.499999" height="449.999989" fill-opacity="1"/><rect x="-37.5" width="450" fill="#ffffff" y="-37.499999" height="449.999989" fill-opacity="1"/><rect x="-37.5" width="450" fill="#ffffff" y="-37.499999" height="449.999989" fill-opacity="1"/><g clip-path="url(#id1)"><path fill="#1976d2" d="M 177.726562 260.726562 C 176.644531 260.726562 175.550781 260.453125 174.550781 259.875 L 124.410156 231.007812 C 118.957031 227.867188 115.570312 222.019531 115.570312 215.742188 L 115.570312 158.003906 C 115.570312 151.730469 118.957031 145.878906 124.410156 142.742188 L 174.550781 113.871094 C 180 110.734375 186.773438 110.734375 192.222656 113.871094 L 242.363281 142.742188 C 247.8125 145.878906 251.199219 151.730469 251.199219 158.003906 L 251.199219 215.742188 C 251.199219 222.019531 247.8125 227.867188 242.363281 231.007812 C 239.320312 232.757812 235.425781 231.71875 233.667969 228.683594 C 231.910156 225.648438 232.953125 221.765625 235.996094 220.011719 C 237.519531 219.132812 238.46875 217.5 238.46875 215.742188 L 238.46875 158.003906 C 238.46875 156.25 237.519531 154.617188 235.996094 153.738281 L 185.859375 124.871094 C 184.332031 123.992188 182.441406 123.992188 180.914062 124.871094 L 130.773438 153.738281 C 129.25 154.617188 128.304688 156.25 128.304688 158.003906 L 128.304688 215.742188 C 128.304688 217.5 129.25 219.132812 130.773438 220.011719 L 180.914062 248.878906 C 183.960938 250.632812 185.003906 254.515625 183.246094 257.550781 C 182.066406 259.585938 179.925781 260.726562 177.726562 260.726562 " fill-opacity="1" fill-rule="nonzero"/></g><path fill="#1976d2" d="M 180.875 154.695312 L 168.839844 154.695312 L 168.839844 142.691406 L 180.875 142.691406 L 180.875 154.695312 " fill-opacity="1" fill-rule="nonzero"/><path fill="#1976d2" d="M 197.933594 154.695312 L 185.898438 154.695312 L 185.898438 142.691406 L 197.933594 142.691406 L 197.933594 154.695312 " fill-opacity="1" fill-rule="nonzero"/><path fill="#1976d2" d="M 180.875 171.386719 L 168.839844 171.386719 L 168.839844 159.386719 L 180.875 159.386719 L 180.875 171.386719 " fill-opacity="1" fill-rule="nonzero"/><path fill="#1976d2" d="M 197.933594 171.386719 L 185.898438 171.386719 L 185.898438 159.386719 L 197.933594 159.386719 L 197.933594 171.386719 " fill-opacity="1" fill-rule="nonzero"/><path fill="#1976d2" d="M 184.414062 182.417969 C 184.414062 182.417969 184.511719 182.378906 184.703125 182.308594 C 184.890625 182.234375 185.171875 182.125 185.539062 181.988281 C 185.90625 181.855469 186.359375 181.683594 186.894531 181.496094 C 187.425781 181.300781 188.042969 181.085938 188.738281 180.851562 C 189.429688 180.617188 190.203125 180.367188 191.050781 180.109375 C 191.894531 179.847656 192.816406 179.59375 193.808594 179.332031 C 194.058594 179.269531 194.3125 179.203125 194.570312 179.140625 C 194.828125 179.082031 195.089844 179.019531 195.355469 178.957031 C 195.621094 178.894531 195.890625 178.839844 196.167969 178.78125 C 196.441406 178.722656 196.71875 178.660156 197.003906 178.609375 C 198.140625 178.386719 199.351562 178.203125 200.621094 178.066406 C 201.894531 177.933594 203.234375 177.859375 204.625 177.867188 C 206.015625 177.875 207.460938 177.984375 208.9375 178.199219 C 209.121094 178.230469 209.304688 178.257812 209.488281 178.285156 C 209.675781 178.320312 209.859375 178.351562 210.046875 178.386719 C 210.234375 178.425781 210.421875 178.457031 210.605469 178.496094 C 210.792969 178.539062 210.980469 178.582031 211.164062 178.625 C 211.351562 178.667969 211.542969 178.707031 211.730469 178.753906 C 211.914062 178.804688 212.101562 178.855469 212.289062 178.90625 C 212.382812 178.929688 212.476562 178.957031 212.570312 178.980469 C 212.667969 179.007812 212.761719 179.03125 212.851562 179.0625 C 213.039062 179.121094 213.226562 179.179688 213.414062 179.238281 C 214.914062 179.714844 216.410156 180.324219 217.867188 181.0625 L 218.140625 181.199219 L 218.175781 181.21875 C 218.144531 181.199219 218.257812 181.261719 218.257812 181.261719 L 218.320312 181.300781 L 218.351562 181.316406 C 218.359375 181.320312 218.375 181.332031 218.402344 181.347656 C 218.445312 181.375 218.488281 181.40625 218.53125 181.433594 C 218.628906 181.5 218.679688 181.542969 218.746094 181.597656 C 218.8125 181.648438 218.867188 181.699219 218.929688 181.753906 C 219.042969 181.859375 219.152344 181.972656 219.25 182.089844 C 219.449219 182.324219 219.617188 182.570312 219.761719 182.84375 C 219.902344 183.125 220.027344 183.425781 220.097656 183.792969 C 220.117188 183.886719 220.132812 183.984375 220.140625 184.082031 C 220.144531 184.136719 220.148438 184.191406 220.152344 184.242188 L 220.15625 184.320312 L 220.15625 184.355469 L 220.160156 184.65625 C 220.164062 184.855469 220.167969 185.050781 220.167969 185.25 C 220.175781 185.648438 220.183594 186.050781 220.1875 186.449219 C 220.199219 187.25 220.207031 188.058594 220.21875 188.867188 C 220.230469 189.679688 220.238281 190.492188 220.246094 191.3125 C 220.273438 194.582031 220.289062 197.90625 220.292969 201.226562 C 220.292969 204.550781 220.277344 207.871094 220.246094 211.144531 C 220.238281 211.960938 220.230469 212.777344 220.222656 213.585938 C 220.214844 214.398438 220.203125 215.203125 220.191406 216.003906 C 220.179688 216.808594 220.167969 217.601562 220.152344 218.394531 L 220.148438 218.765625 C 220.148438 218.761719 220.144531 218.9375 220.144531 218.878906 L 220.140625 218.917969 L 220.140625 218.953125 C 220.136719 218.964844 220.136719 218.972656 220.132812 219.027344 C 220.125 219.109375 220.109375 219.195312 220.09375 219.277344 C 220.085938 219.320312 220.078125 219.359375 220.066406 219.390625 C 220.058594 219.425781 220.046875 219.464844 220.035156 219.496094 C 220.023438 219.535156 220.011719 219.570312 220 219.605469 C 219.988281 219.640625 219.96875 219.679688 219.953125 219.714844 C 219.933594 219.753906 219.917969 219.789062 219.898438 219.828125 C 219.878906 219.863281 219.859375 219.902344 219.835938 219.941406 C 219.785156 220.015625 219.734375 220.09375 219.679688 220.164062 C 219.617188 220.238281 219.550781 220.304688 219.480469 220.375 C 219.410156 220.4375 219.332031 220.496094 219.253906 220.550781 C 219.171875 220.609375 219.089844 220.648438 219.007812 220.695312 C 218.964844 220.714844 218.921875 220.734375 218.878906 220.75 C 218.835938 220.765625 218.796875 220.78125 218.753906 220.792969 C 218.671875 220.820312 218.585938 220.84375 218.507812 220.859375 C 218.429688 220.871094 218.347656 220.882812 218.273438 220.886719 C 218.203125 220.894531 218.132812 220.894531 218.058594 220.894531 C 217.988281 220.894531 217.929688 220.886719 217.863281 220.882812 L 217.769531 220.871094 C 217.738281 220.867188 217.710938 220.859375 217.679688 220.855469 C 217.625 220.84375 217.566406 220.832031 217.511719 220.820312 C 217.460938 220.804688 217.410156 220.789062 217.359375 220.773438 C 217.308594 220.757812 217.257812 220.742188 217.214844 220.722656 C 217.125 220.6875 217.035156 220.648438 216.957031 220.609375 L 216.839844 220.546875 L 216.789062 220.523438 L 216.535156 220.382812 C 216.363281 220.289062 216.191406 220.195312 216.019531 220.101562 L 215.894531 220.03125 C 215.847656 220.007812 215.808594 219.984375 215.765625 219.96875 L 215.527344 219.847656 C 215.203125 219.6875 214.890625 219.523438 214.550781 219.375 C 214.21875 219.226562 213.890625 219.066406 213.554688 218.9375 C 213.386719 218.871094 213.21875 218.800781 213.050781 218.730469 L 212.925781 218.679688 L 212.800781 218.632812 L 212.550781 218.542969 C 212.378906 218.480469 212.210938 218.417969 212.046875 218.359375 C 211.960938 218.324219 211.875 218.296875 211.792969 218.269531 C 211.707031 218.242188 211.625 218.214844 211.539062 218.1875 C 211.371094 218.132812 211.203125 218.078125 211.035156 218.023438 C 210.867188 217.96875 210.695312 217.925781 210.527344 217.878906 C 210.359375 217.828125 210.191406 217.78125 210.023438 217.730469 C 209.855469 217.6875 209.6875 217.648438 209.515625 217.605469 C 209.347656 217.566406 209.179688 217.523438 209.011719 217.480469 C 208.84375 217.445312 208.675781 217.410156 208.507812 217.375 C 207.164062 217.085938 205.832031 216.914062 204.535156 216.808594 C 203.234375 216.703125 201.964844 216.6875 200.742188 216.714844 C 200.589844 216.71875 200.441406 216.722656 200.289062 216.730469 C 200.136719 216.730469 199.988281 216.734375 199.835938 216.746094 C 199.539062 216.761719 199.242188 216.777344 198.949219 216.792969 C 198.65625 216.816406 198.367188 216.839844 198.078125 216.859375 C 197.792969 216.882812 197.511719 216.914062 197.234375 216.9375 C 196.113281 217.050781 195.054688 217.1875 194.058594 217.339844 C 192.066406 217.640625 190.335938 217.980469 188.90625 218.265625 C 188.546875 218.335938 188.210938 218.410156 187.894531 218.476562 C 187.574219 218.542969 187.277344 218.605469 187 218.664062 C 186.445312 218.78125 185.972656 218.878906 185.589844 218.960938 C 184.824219 219.121094 184.414062 219.207031 184.414062 219.207031 C 184.414062 219.207031 184.511719 219.171875 184.703125 219.097656 C 184.890625 219.027344 185.171875 218.917969 185.539062 218.78125 C 185.90625 218.644531 186.359375 218.476562 186.894531 218.285156 C 187.425781 218.089844 188.042969 217.875 188.738281 217.640625 C 189.085938 217.527344 189.449219 217.402344 189.835938 217.28125 C 190.222656 217.15625 190.625 217.027344 191.050781 216.902344 C 191.894531 216.636719 192.816406 216.382812 193.808594 216.121094 C 195.796875 215.613281 198.074219 215.121094 200.621094 214.855469 C 201.894531 214.71875 203.234375 214.644531 204.625 214.652344 C 206.015625 214.664062 207.460938 214.773438 208.9375 214.988281 C 209.121094 215.015625 209.304688 215.042969 209.492188 215.070312 C 209.675781 215.105469 209.859375 215.140625 210.046875 215.175781 C 210.234375 215.210938 210.421875 215.246094 210.609375 215.28125 C 210.792969 215.324219 210.980469 215.367188 211.167969 215.410156 C 211.351562 215.453125 211.542969 215.492188 211.730469 215.542969 C 211.917969 215.59375 212.101562 215.640625 212.292969 215.691406 C 212.386719 215.71875 212.480469 215.742188 212.574219 215.769531 C 212.667969 215.796875 212.761719 215.820312 212.855469 215.851562 C 213.039062 215.910156 213.230469 215.96875 213.417969 216.027344 C 213.507812 216.054688 213.605469 216.085938 213.699219 216.113281 L 213.980469 216.207031 C 214.167969 216.273438 214.351562 216.339844 214.539062 216.40625 C 214.917969 216.535156 215.285156 216.691406 215.65625 216.839844 C 216.03125 216.980469 216.410156 217.160156 216.785156 217.328125 L 217.070312 217.457031 C 217.117188 217.480469 217.164062 217.5 217.203125 217.519531 L 217.335938 217.585938 C 217.511719 217.671875 217.683594 217.761719 217.859375 217.847656 L 218.121094 217.976562 L 218.203125 218.019531 L 218.214844 218.019531 L 218.226562 218.023438 L 218.222656 218.019531 L 218.210938 218.019531 L 218.1875 218.011719 L 218.171875 218.007812 L 218.148438 218.003906 C 218.132812 218 218.125 218.003906 218.101562 218 C 218.078125 218 218.054688 218 218.03125 218.003906 C 218.007812 218.003906 217.972656 218.007812 217.945312 218.011719 C 217.917969 218.019531 217.878906 218.027344 217.839844 218.039062 C 217.824219 218.042969 217.804688 218.050781 217.785156 218.058594 C 217.769531 218.066406 217.746094 218.074219 217.726562 218.082031 C 217.683594 218.101562 217.648438 218.125 217.605469 218.152344 C 217.566406 218.175781 217.527344 218.210938 217.496094 218.238281 C 217.460938 218.269531 217.425781 218.304688 217.398438 218.339844 C 217.371094 218.371094 217.347656 218.40625 217.324219 218.441406 C 217.316406 218.460938 217.304688 218.476562 217.296875 218.492188 C 217.289062 218.503906 217.28125 218.519531 217.273438 218.535156 C 217.269531 218.550781 217.261719 218.570312 217.257812 218.578125 L 217.242188 218.617188 L 217.230469 218.652344 C 217.230469 218.664062 217.226562 218.675781 217.222656 218.695312 C 217.214844 218.730469 217.210938 218.761719 217.207031 218.796875 C 217.207031 218.828125 217.207031 218.8125 217.210938 218.796875 L 217.210938 218.722656 C 217.214844 218.640625 217.210938 218.796875 217.210938 218.765625 L 217.207031 218.691406 L 217.203125 218.394531 C 217.191406 217.601562 217.179688 216.808594 217.167969 216.003906 C 217.15625 215.203125 217.144531 214.398438 217.132812 213.585938 C 217.125 212.777344 217.117188 211.960938 217.109375 211.144531 C 217.082031 207.871094 217.066406 204.550781 217.066406 201.226562 C 217.066406 197.90625 217.082031 194.582031 217.113281 191.3125 C 217.121094 190.492188 217.128906 189.679688 217.136719 188.867188 C 217.148438 188.058594 217.160156 187.25 217.171875 186.449219 C 217.175781 186.050781 217.183594 185.648438 217.1875 185.25 C 217.191406 185.050781 217.195312 184.855469 217.199219 184.65625 L 217.203125 184.355469 L 217.203125 184.320312 L 217.203125 184.335938 L 217.207031 184.332031 C 217.207031 184.308594 217.1875 184.238281 217.152344 184.164062 C 217.117188 184.089844 217.070312 184.007812 217.015625 183.9375 C 216.988281 183.902344 216.960938 183.871094 216.933594 183.84375 L 216.898438 183.804688 L 216.878906 183.789062 L 216.890625 183.789062 C 216.898438 183.792969 216.890625 183.789062 216.878906 183.78125 L 216.785156 183.722656 C 216.761719 183.707031 216.855469 183.761719 216.800781 183.730469 L 216.769531 183.714844 L 216.527344 183.582031 C 215.226562 182.859375 213.894531 182.246094 212.550781 181.746094 C 212.382812 181.683594 212.214844 181.621094 212.046875 181.5625 C 211.964844 181.527344 211.878906 181.5 211.792969 181.476562 C 211.710938 181.449219 211.625 181.421875 211.542969 181.394531 C 211.371094 181.339844 211.203125 181.28125 211.035156 181.226562 C 210.867188 181.175781 210.699219 181.128906 210.527344 181.082031 C 210.363281 181.03125 210.191406 180.984375 210.023438 180.9375 C 209.855469 180.890625 209.6875 180.851562 209.519531 180.808594 C 209.347656 180.769531 209.179688 180.726562 209.011719 180.683594 C 208.84375 180.648438 208.675781 180.613281 208.507812 180.578125 C 207.167969 180.289062 205.832031 180.117188 204.535156 180.011719 C 203.234375 179.90625 201.964844 179.890625 200.742188 179.917969 C 200.589844 179.921875 200.441406 179.925781 200.289062 179.933594 C 200.136719 179.9375 199.988281 179.941406 199.835938 179.949219 C 199.539062 179.964844 199.242188 179.980469 198.949219 179.996094 C 198.65625 180.019531 198.367188 180.042969 198.078125 180.066406 C 197.792969 180.089844 197.511719 180.117188 197.230469 180.144531 C 196.113281 180.253906 195.054688 180.394531 194.058594 180.542969 C 192.066406 180.847656 190.332031 181.1875 188.90625 181.472656 C 188.546875 181.542969 188.210938 181.617188 187.894531 181.679688 C 187.574219 181.746094 187.277344 181.808594 187 181.867188 C 186.445312 181.988281 185.972656 182.085938 185.589844 182.167969 C 184.824219 182.332031 184.414062 182.417969 184.414062 182.417969 " fill-opacity="1" fill-rule="nonzero"/><path fill="#1976d2" d="M 190.785156 189.003906 C 190.785156 189.003906 190.863281 188.949219 191.015625 188.855469 C 191.167969 188.761719 191.390625 188.625 191.6875 188.464844 C 191.980469 188.304688 192.335938 188.113281 192.757812 187.910156 C 192.96875 187.8125 193.191406 187.707031 193.429688 187.597656 C 193.667969 187.488281 193.921875 187.386719 194.191406 187.277344 C 194.457031 187.167969 194.734375 187.058594 195.023438 186.949219 C 195.316406 186.839844 195.617188 186.738281 195.929688 186.632812 C 196.558594 186.425781 197.226562 186.234375 197.929688 186.066406 C 198.105469 186.023438 198.28125 185.980469 198.460938 185.941406 C 198.640625 185.90625 198.820312 185.863281 199.003906 185.832031 C 199.367188 185.757812 199.738281 185.695312 200.117188 185.640625 C 200.863281 185.527344 201.636719 185.460938 202.410156 185.421875 C 203.179688 185.390625 203.953125 185.398438 204.714844 185.453125 C 204.808594 185.460938 204.90625 185.46875 205 185.472656 C 205.09375 185.484375 205.1875 185.492188 205.28125 185.503906 C 205.375 185.511719 205.46875 185.523438 205.5625 185.53125 C 205.65625 185.542969 205.75 185.558594 205.84375 185.570312 C 206.210938 185.617188 206.578125 185.675781 206.933594 185.746094 C 207.644531 185.886719 208.324219 186.066406 208.953125 186.273438 C 209.113281 186.324219 209.265625 186.382812 209.417969 186.4375 C 209.570312 186.488281 209.71875 186.546875 209.863281 186.605469 C 209.9375 186.632812 210.007812 186.664062 210.078125 186.691406 C 210.148438 186.722656 210.21875 186.753906 210.285156 186.78125 C 210.425781 186.84375 210.5625 186.902344 210.691406 186.964844 C 211.21875 187.199219 211.675781 187.464844 212.082031 187.699219 C 212.179688 187.761719 212.277344 187.820312 212.371094 187.878906 C 212.417969 187.90625 212.464844 187.933594 212.507812 187.960938 C 212.550781 187.988281 212.59375 188.019531 212.636719 188.046875 C 212.800781 188.164062 212.957031 188.261719 213.09375 188.363281 C 213.230469 188.460938 213.347656 188.546875 213.453125 188.625 C 213.554688 188.707031 213.640625 188.773438 213.710938 188.832031 C 213.851562 188.941406 213.925781 189.003906 213.925781 189.003906 C 213.925781 189.003906 213.839844 188.953125 213.683594 188.867188 C 213.609375 188.820312 213.515625 188.765625 213.402344 188.699219 C 213.289062 188.640625 213.160156 188.570312 213.011719 188.488281 C 212.722656 188.332031 212.359375 188.152344 211.945312 187.953125 C 211.84375 187.90625 211.730469 187.859375 211.621094 187.808594 C 211.511719 187.761719 211.394531 187.707031 211.277344 187.660156 C 211.15625 187.613281 211.035156 187.5625 210.910156 187.511719 C 210.785156 187.460938 210.65625 187.414062 210.523438 187.363281 C 209.996094 187.167969 209.414062 186.984375 208.792969 186.816406 C 208.171875 186.652344 207.507812 186.511719 206.816406 186.40625 C 206.46875 186.351562 206.117188 186.304688 205.757812 186.269531 C 205.667969 186.257812 205.578125 186.25 205.488281 186.242188 C 205.398438 186.234375 205.308594 186.226562 205.214844 186.21875 C 205.125 186.210938 205.035156 186.207031 204.941406 186.199219 C 204.851562 186.191406 204.761719 186.1875 204.671875 186.183594 C 203.9375 186.144531 203.1875 186.140625 202.441406 186.175781 C 201.691406 186.207031 200.945312 186.269531 200.214844 186.363281 C 199.480469 186.460938 198.765625 186.574219 198.074219 186.714844 C 197.382812 186.855469 196.71875 187.007812 196.09375 187.175781 C 195.46875 187.339844 194.878906 187.511719 194.335938 187.679688 C 193.796875 187.855469 193.304688 188.019531 192.871094 188.175781 C 192.433594 188.335938 192.058594 188.476562 191.75 188.597656 C 191.441406 188.722656 191.199219 188.820312 191.035156 188.894531 C 190.871094 188.964844 190.785156 189.003906 190.785156 189.003906 " fill-opacity="1" fill-rule="nonzero"/><path fill="#1976d2" d="M 190.785156 194.398438 C 190.785156 194.398438 190.863281 194.34375 191.015625 194.25 C 191.167969 194.15625 191.390625 194.019531 191.6875 193.859375 C 191.980469 193.699219 192.335938 193.507812 192.757812 193.304688 C 192.96875 193.203125 193.191406 193.101562 193.429688 192.992188 C 193.667969 192.886719 193.921875 192.777344 194.191406 192.671875 C 194.457031 192.5625 194.734375 192.453125 195.023438 192.34375 C 195.316406 192.234375 195.617188 192.128906 195.929688 192.027344 C 196.558594 191.820312 197.226562 191.628906 197.929688 191.460938 C 198.105469 191.417969 198.28125 191.375 198.460938 191.335938 C 198.640625 191.300781 198.820312 191.261719 199.003906 191.226562 C 199.367188 191.152344 199.738281 191.089844 200.117188 191.035156 C 200.863281 190.921875 201.636719 190.851562 202.410156 190.816406 C 203.179688 190.785156 203.953125 190.789062 204.714844 190.847656 C 204.808594 190.855469 204.90625 190.863281 205 190.871094 C 205.09375 190.878906 205.1875 190.886719 205.28125 190.894531 C 205.375 190.90625 205.46875 190.917969 205.5625 190.925781 C 205.65625 190.9375 205.75 190.949219 205.84375 190.964844 C 206.210938 191.011719 206.578125 191.070312 206.933594 191.140625 C 207.644531 191.28125 208.324219 191.460938 208.953125 191.667969 C 209.113281 191.71875 209.265625 191.777344 209.417969 191.828125 C 209.570312 191.882812 209.71875 191.941406 209.863281 192 C 209.9375 192.027344 210.007812 192.058594 210.078125 192.085938 C 210.148438 192.117188 210.21875 192.148438 210.285156 192.175781 C 210.425781 192.238281 210.5625 192.292969 210.691406 192.359375 C 211.21875 192.597656 211.675781 192.859375 212.082031 193.09375 C 212.179688 193.15625 212.277344 193.214844 212.371094 193.269531 C 212.417969 193.300781 212.464844 193.328125 212.507812 193.355469 C 212.550781 193.382812 212.59375 193.414062 212.636719 193.441406 C 212.800781 193.554688 212.957031 193.65625 213.09375 193.753906 C 213.230469 193.855469 213.347656 193.941406 213.453125 194.019531 C 213.554688 194.101562 213.640625 194.167969 213.710938 194.222656 C 213.851562 194.335938 213.925781 194.398438 213.925781 194.398438 C 213.925781 194.398438 213.839844 194.347656 213.683594 194.261719 C 213.609375 194.214844 213.515625 194.160156 213.402344 194.097656 C 213.289062 194.035156 213.160156 193.964844 213.011719 193.882812 C 212.722656 193.726562 212.359375 193.546875 211.945312 193.347656 C 211.84375 193.300781 211.730469 193.253906 211.621094 193.203125 C 211.511719 193.152344 211.394531 193.101562 211.277344 193.054688 C 211.15625 193.007812 211.035156 192.957031 210.910156 192.90625 C 210.785156 192.855469 210.65625 192.808594 210.523438 192.757812 C 209.996094 192.5625 209.414062 192.378906 208.792969 192.210938 C 208.171875 192.046875 207.507812 191.90625 206.816406 191.800781 C 206.46875 191.746094 206.117188 191.699219 205.757812 191.664062 C 205.667969 191.652344 205.578125 191.644531 205.488281 191.636719 C 205.398438 191.628906 205.308594 191.621094 205.214844 191.613281 C 205.125 191.605469 205.035156 191.601562 204.941406 191.59375 C 204.851562 191.589844 204.761719 191.582031 204.671875 191.578125 C 203.9375 191.539062 203.1875 191.535156 202.441406 191.570312 C 201.691406 191.597656 200.945312 191.664062 200.214844 191.757812 C 199.480469 191.851562 198.765625 191.96875 198.074219 192.109375 C 197.382812 192.25 196.71875 192.402344 196.09375 192.570312 C 195.46875 192.734375 194.878906 192.90625 194.335938 193.074219 C 193.796875 193.246094 193.304688 193.414062 192.871094 193.570312 C 192.433594 193.730469 192.058594 193.871094 191.75 193.992188 C 191.441406 194.117188 191.199219 194.214844 191.035156 194.285156 C 190.871094 194.359375 190.785156 194.398438 190.785156 194.398438 " fill-opacity="1" fill-rule="nonzero"/><path fill="#1976d2" d="M 190.785156 199.789062 C 190.785156 199.789062 190.863281 199.738281 191.015625 199.644531 C 191.167969 199.550781 191.390625 199.414062 191.6875 199.253906 C 191.980469 199.09375 192.335938 198.898438 192.757812 198.699219 C 192.96875 198.597656 193.191406 198.496094 193.429688 198.386719 C 193.667969 198.28125 193.921875 198.171875 194.191406 198.0625 C 194.457031 197.957031 194.734375 197.847656 195.023438 197.738281 C 195.316406 197.628906 195.617188 197.523438 195.929688 197.421875 C 196.558594 197.214844 197.226562 197.023438 197.929688 196.851562 C 198.105469 196.808594 198.28125 196.773438 198.460938 196.730469 C 198.640625 196.695312 198.820312 196.652344 199.003906 196.621094 C 199.367188 196.546875 199.738281 196.484375 200.117188 196.429688 C 200.863281 196.316406 201.636719 196.246094 202.410156 196.210938 C 203.179688 196.179688 203.953125 196.1875 204.714844 196.242188 C 204.808594 196.25 204.90625 196.253906 205 196.265625 C 205.09375 196.273438 205.1875 196.28125 205.28125 196.289062 C 205.375 196.300781 205.46875 196.308594 205.5625 196.320312 C 205.65625 196.332031 205.75 196.347656 205.84375 196.355469 C 206.210938 196.40625 206.578125 196.464844 206.933594 196.535156 C 207.644531 196.671875 208.324219 196.855469 208.953125 197.0625 C 209.113281 197.113281 209.265625 197.171875 209.417969 197.226562 C 209.570312 197.277344 209.71875 197.335938 209.863281 197.394531 C 209.9375 197.421875 210.007812 197.453125 210.078125 197.480469 C 210.148438 197.511719 210.21875 197.539062 210.285156 197.570312 C 210.425781 197.632812 210.5625 197.6875 210.691406 197.75 C 211.21875 197.988281 211.675781 198.253906 212.082031 198.488281 C 212.179688 198.550781 212.277344 198.609375 212.371094 198.664062 C 212.417969 198.695312 212.464844 198.722656 212.507812 198.75 C 212.550781 198.777344 212.59375 198.808594 212.636719 198.835938 C 212.800781 198.949219 212.957031 199.050781 213.09375 199.148438 C 213.230469 199.25 213.347656 199.335938 213.453125 199.414062 C 213.554688 199.496094 213.640625 199.5625 213.710938 199.617188 C 213.851562 199.730469 213.925781 199.789062 213.925781 199.789062 C 213.925781 199.789062 213.839844 199.742188 213.683594 199.652344 C 213.609375 199.609375 213.515625 199.554688 213.402344 199.488281 C 213.289062 199.429688 213.160156 199.355469 213.011719 199.277344 C 212.722656 199.117188 212.359375 198.941406 211.945312 198.742188 C 211.84375 198.691406 211.730469 198.644531 211.621094 198.597656 C 211.511719 198.546875 211.394531 198.496094 211.277344 198.449219 C 211.15625 198.402344 211.035156 198.351562 210.910156 198.296875 C 210.785156 198.25 210.65625 198.203125 210.523438 198.152344 C 209.996094 197.957031 209.414062 197.769531 208.792969 197.609375 C 208.171875 197.441406 207.507812 197.300781 206.816406 197.195312 C 206.46875 197.140625 206.117188 197.09375 205.757812 197.054688 C 205.667969 197.046875 205.578125 197.039062 205.488281 197.03125 C 205.398438 197.023438 205.308594 197.015625 205.214844 197.007812 C 205.125 197 205.035156 196.996094 204.941406 196.988281 C 204.851562 196.980469 204.761719 196.976562 204.671875 196.972656 C 203.9375 196.933594 203.1875 196.925781 202.441406 196.964844 C 201.691406 196.996094 200.945312 197.058594 200.214844 197.152344 C 199.480469 197.246094 198.765625 197.363281 198.074219 197.503906 C 197.382812 197.644531 196.71875 197.796875 196.09375 197.964844 C 195.46875 198.128906 194.878906 198.296875 194.335938 198.46875 C 193.796875 198.640625 193.304688 198.808594 192.871094 198.964844 C 192.433594 199.121094 192.058594 199.265625 191.75 199.386719 C 191.441406 199.511719 191.199219 199.609375 191.035156 199.683594 C 190.871094 199.753906 190.785156 199.789062 190.785156 199.789062 " fill-opacity="1" fill-rule="nonzero"/><path fill="#1976d2" d="M 190.785156 205.183594 C 190.785156 205.183594 190.863281 205.132812 191.015625 205.039062 C 191.167969 204.945312 191.390625 204.804688 191.6875 204.648438 C 191.980469 204.484375 192.335938 204.292969 192.757812 204.09375 C 192.96875 203.992188 193.191406 203.886719 193.429688 203.78125 C 193.667969 203.671875 193.921875 203.566406 194.191406 203.457031 C 194.457031 203.347656 194.734375 203.242188 195.023438 203.132812 C 195.316406 203.023438 195.617188 202.917969 195.929688 202.816406 C 196.558594 202.609375 197.226562 202.417969 197.929688 202.246094 C 198.105469 202.207031 198.28125 202.164062 198.460938 202.125 C 198.640625 202.089844 198.820312 202.046875 199.003906 202.011719 C 199.367188 201.941406 199.738281 201.878906 200.117188 201.824219 C 200.863281 201.710938 201.636719 201.640625 202.410156 201.605469 C 203.179688 201.570312 203.953125 201.578125 204.714844 201.636719 C 204.808594 201.644531 204.90625 201.652344 205 201.65625 C 205.09375 201.667969 205.1875 201.675781 205.28125 201.683594 C 205.375 201.695312 205.46875 201.707031 205.5625 201.714844 C 205.65625 201.726562 205.75 201.738281 205.84375 201.75 C 206.210938 201.800781 206.578125 201.859375 206.933594 201.929688 C 207.644531 202.070312 208.324219 202.25 208.953125 202.457031 C 209.113281 202.507812 209.265625 202.566406 209.417969 202.617188 C 209.570312 202.671875 209.71875 202.730469 209.863281 202.789062 C 209.9375 202.816406 210.007812 202.847656 210.078125 202.875 C 210.148438 202.90625 210.21875 202.933594 210.285156 202.964844 C 210.425781 203.027344 210.5625 203.082031 210.691406 203.148438 C 211.21875 203.382812 211.675781 203.648438 212.082031 203.882812 C 212.179688 203.941406 212.277344 204.003906 212.371094 204.058594 C 212.417969 204.085938 212.464844 204.117188 212.507812 204.144531 C 212.550781 204.171875 212.59375 204.199219 212.636719 204.230469 C 212.800781 204.34375 212.957031 204.445312 213.09375 204.542969 C 213.230469 204.640625 213.347656 204.730469 213.453125 204.808594 C 213.554688 204.886719 213.640625 204.957031 213.710938 205.011719 C 213.851562 205.125 213.925781 205.183594 213.925781 205.183594 C 213.925781 205.183594 213.839844 205.136719 213.683594 205.046875 C 213.609375 205.003906 213.515625 204.949219 213.402344 204.882812 C 213.289062 204.824219 213.160156 204.75 213.011719 204.671875 C 212.722656 204.511719 212.359375 204.335938 211.945312 204.136719 C 211.84375 204.085938 211.730469 204.042969 211.621094 203.992188 C 211.511719 203.941406 211.394531 203.890625 211.277344 203.84375 C 211.15625 203.796875 211.035156 203.746094 210.910156 203.691406 C 210.785156 203.644531 210.65625 203.59375 210.523438 203.542969 C 209.996094 203.351562 209.414062 203.164062 208.792969 203 C 208.171875 202.835938 207.507812 202.695312 206.816406 202.589844 C 206.46875 202.535156 206.117188 202.484375 205.757812 202.449219 C 205.667969 202.441406 205.578125 202.433594 205.488281 202.421875 C 205.398438 202.414062 205.308594 202.410156 205.214844 202.402344 C 205.125 202.394531 205.035156 202.386719 204.941406 202.382812 C 204.851562 202.375 204.761719 202.371094 204.671875 202.367188 C 203.9375 202.328125 203.1875 202.320312 202.441406 202.355469 C 201.691406 202.386719 200.945312 202.453125 200.214844 202.546875 C 199.480469 202.640625 198.765625 202.757812 198.074219 202.898438 C 197.382812 203.039062 196.71875 203.191406 196.09375 203.355469 C 195.46875 203.523438 194.878906 203.691406 194.335938 203.863281 C 193.796875 204.035156 193.304688 204.203125 192.871094 204.359375 C 192.433594 204.515625 192.058594 204.660156 191.75 204.78125 C 191.441406 204.90625 191.199219 205.003906 191.035156 205.074219 C 190.871094 205.148438 190.785156 205.183594 190.785156 205.183594 " fill-opacity="1" fill-rule="nonzero"/><path fill="#1976d2" d="M 190.785156 210.578125 C 190.785156 210.578125 190.863281 210.527344 191.015625 210.429688 C 191.167969 210.339844 191.390625 210.199219 191.6875 210.039062 C 191.980469 209.882812 192.335938 209.6875 192.757812 209.488281 C 192.96875 209.386719 193.191406 209.285156 193.429688 209.175781 C 193.667969 209.066406 193.921875 208.960938 194.191406 208.851562 C 194.457031 208.742188 194.734375 208.636719 195.023438 208.527344 C 195.316406 208.417969 195.617188 208.3125 195.929688 208.210938 C 196.558594 208.003906 197.226562 207.8125 197.929688 207.640625 C 198.105469 207.597656 198.28125 207.558594 198.460938 207.519531 C 198.640625 207.480469 198.820312 207.441406 199.003906 207.40625 C 199.367188 207.335938 199.738281 207.273438 200.117188 207.21875 C 200.863281 207.105469 201.636719 207.035156 202.410156 207 C 203.179688 206.964844 203.953125 206.972656 204.714844 207.03125 C 204.808594 207.039062 204.90625 207.046875 205 207.050781 C 205.09375 207.058594 205.1875 207.070312 205.28125 207.078125 C 205.375 207.089844 205.46875 207.097656 205.5625 207.109375 C 205.65625 207.121094 205.75 207.132812 205.84375 207.144531 C 206.210938 207.195312 206.578125 207.253906 206.933594 207.324219 C 207.644531 207.464844 208.324219 207.644531 208.953125 207.851562 C 209.113281 207.898438 209.265625 207.960938 209.417969 208.011719 C 209.570312 208.066406 209.71875 208.125 209.863281 208.183594 C 209.9375 208.210938 210.007812 208.238281 210.078125 208.269531 C 210.148438 208.296875 210.21875 208.332031 210.285156 208.359375 C 210.425781 208.421875 210.5625 208.476562 210.691406 208.539062 C 211.21875 208.777344 211.675781 209.039062 212.082031 209.277344 C 212.179688 209.335938 212.277344 209.394531 212.371094 209.453125 C 212.417969 209.480469 212.464844 209.507812 212.507812 209.539062 C 212.550781 209.566406 212.59375 209.597656 212.636719 209.625 C 212.800781 209.738281 212.957031 209.835938 213.09375 209.9375 C 213.230469 210.035156 213.347656 210.125 213.453125 210.203125 C 213.554688 210.28125 213.640625 210.351562 213.710938 210.40625 C 213.851562 210.519531 213.925781 210.578125 213.925781 210.578125 C 213.925781 210.578125 213.839844 210.53125 213.683594 210.441406 C 213.609375 210.398438 213.515625 210.34375 213.402344 210.277344 C 213.289062 210.21875 213.160156 210.144531 213.011719 210.066406 C 212.722656 209.90625 212.359375 209.726562 211.945312 209.53125 C 211.84375 209.480469 211.730469 209.433594 211.621094 209.386719 C 211.511719 209.335938 211.394531 209.285156 211.277344 209.238281 C 211.15625 209.1875 211.035156 209.136719 210.910156 209.085938 C 210.785156 209.039062 210.65625 208.988281 210.523438 208.941406 C 209.996094 208.746094 209.414062 208.5625 208.792969 208.394531 C 208.171875 208.230469 207.507812 208.089844 206.816406 207.980469 C 206.46875 207.929688 206.117188 207.878906 205.757812 207.84375 C 205.667969 207.835938 205.578125 207.828125 205.488281 207.816406 C 205.398438 207.8125 205.308594 207.804688 205.214844 207.796875 C 205.125 207.789062 205.035156 207.78125 204.941406 207.777344 C 204.851562 207.769531 204.761719 207.765625 204.671875 207.761719 C 203.9375 207.722656 203.1875 207.714844 202.441406 207.75 C 201.691406 207.78125 200.945312 207.847656 200.214844 207.941406 C 199.480469 208.035156 198.765625 208.152344 198.074219 208.292969 C 197.382812 208.433594 196.71875 208.585938 196.09375 208.75 C 195.46875 208.917969 194.878906 209.085938 194.335938 209.257812 C 193.796875 209.429688 193.304688 209.597656 192.871094 209.753906 C 192.433594 209.910156 192.058594 210.054688 191.75 210.175781 C 191.441406 210.300781 191.199219 210.398438 191.035156 210.46875 C 190.871094 210.539062 190.785156 210.578125 190.785156 210.578125 " fill-opacity="1" fill-rule="nonzero"/><path fill="#1976d2" d="M 182.355469 182.417969 C 182.355469 182.417969 181.949219 182.332031 181.179688 182.167969 C 180.796875 182.085938 180.328125 181.988281 179.773438 181.867188 C 179.496094 181.808594 179.195312 181.746094 178.878906 181.679688 C 178.5625 181.617188 178.222656 181.542969 177.867188 181.472656 C 176.4375 181.1875 174.707031 180.847656 172.714844 180.542969 C 171.71875 180.394531 170.65625 180.253906 169.542969 180.144531 C 169.261719 180.117188 168.980469 180.089844 168.691406 180.066406 C 168.40625 180.042969 168.117188 180.019531 167.824219 179.996094 C 167.53125 179.980469 167.234375 179.964844 166.933594 179.949219 C 166.785156 179.941406 166.636719 179.9375 166.484375 179.933594 C 166.332031 179.925781 166.179688 179.921875 166.027344 179.917969 C 164.808594 179.890625 163.539062 179.90625 162.238281 180.011719 C 160.9375 180.117188 159.605469 180.289062 158.261719 180.578125 C 158.09375 180.613281 157.925781 180.648438 157.757812 180.683594 C 157.589844 180.726562 157.421875 180.769531 157.253906 180.808594 C 157.085938 180.851562 156.917969 180.890625 156.746094 180.9375 C 156.578125 180.984375 156.410156 181.03125 156.242188 181.082031 C 156.074219 181.128906 155.90625 181.175781 155.738281 181.226562 C 155.570312 181.28125 155.402344 181.339844 155.230469 181.394531 C 155.148438 181.421875 155.0625 181.449219 154.976562 181.472656 C 154.894531 181.5 154.808594 181.527344 154.726562 181.5625 C 154.558594 181.621094 154.390625 181.683594 154.222656 181.746094 C 152.878906 182.246094 151.546875 182.859375 150.246094 183.582031 L 150 183.714844 L 149.972656 183.730469 C 149.917969 183.761719 150.007812 183.707031 149.988281 183.71875 L 149.925781 183.761719 L 149.894531 183.78125 C 149.882812 183.789062 149.875 183.792969 149.882812 183.789062 L 149.894531 183.789062 L 149.875 183.804688 L 149.835938 183.84375 C 149.8125 183.871094 149.785156 183.902344 149.757812 183.9375 C 149.703125 184.007812 149.652344 184.089844 149.621094 184.164062 C 149.585938 184.238281 149.566406 184.308594 149.566406 184.332031 L 149.566406 184.335938 L 149.570312 184.324219 L 149.570312 184.320312 L 149.570312 184.355469 L 149.574219 184.65625 C 149.578125 184.855469 149.582031 185.050781 149.585938 185.25 C 149.589844 185.648438 149.597656 186.050781 149.601562 186.449219 C 149.613281 187.25 149.625 188.058594 149.632812 188.867188 C 149.640625 189.679688 149.652344 190.492188 149.660156 191.3125 C 149.6875 194.582031 149.707031 197.90625 149.707031 201.226562 C 149.707031 204.550781 149.691406 207.871094 149.660156 211.144531 C 149.652344 211.960938 149.644531 212.777344 149.636719 213.585938 C 149.625 214.398438 149.617188 215.203125 149.605469 216.003906 C 149.59375 216.808594 149.582031 217.601562 149.570312 218.394531 L 149.5625 218.691406 L 149.5625 218.765625 C 149.5625 218.796875 149.558594 218.640625 149.5625 218.722656 L 149.5625 218.796875 C 149.5625 218.8125 149.566406 218.828125 149.566406 218.796875 C 149.5625 218.761719 149.558594 218.730469 149.550781 218.695312 C 149.546875 218.675781 149.542969 218.664062 149.539062 218.652344 L 149.53125 218.617188 L 149.515625 218.578125 C 149.511719 218.570312 149.503906 218.550781 149.496094 218.535156 C 149.492188 218.519531 149.484375 218.503906 149.472656 218.492188 C 149.464844 218.476562 149.457031 218.460938 149.449219 218.441406 C 149.425781 218.40625 149.402344 218.371094 149.375 218.339844 C 149.347656 218.304688 149.3125 218.269531 149.277344 218.238281 C 149.242188 218.210938 149.207031 218.179688 149.167969 218.152344 C 149.125 218.125 149.089844 218.101562 149.046875 218.085938 C 149.027344 218.074219 149.003906 218.066406 148.988281 218.058594 C 148.96875 218.050781 148.949219 218.042969 148.933594 218.039062 C 148.894531 218.027344 148.855469 218.019531 148.828125 218.011719 C 148.800781 218.007812 148.765625 218.003906 148.738281 218.003906 C 148.71875 218 148.695312 218 148.671875 218 C 148.648438 218.003906 148.640625 218 148.621094 218.003906 L 148.601562 218.007812 L 148.585938 218.011719 L 148.5625 218.019531 L 148.550781 218.019531 L 148.546875 218.023438 L 148.554688 218.019531 L 148.570312 218.019531 L 148.652344 217.976562 L 148.914062 217.847656 C 149.089844 217.761719 149.261719 217.671875 149.4375 217.585938 L 149.566406 217.519531 C 149.609375 217.5 149.652344 217.480469 149.703125 217.457031 L 149.988281 217.328125 C 150.363281 217.160156 150.742188 216.980469 151.113281 216.839844 C 151.488281 216.691406 151.855469 216.535156 152.234375 216.40625 C 152.421875 216.339844 152.605469 216.273438 152.792969 216.207031 L 153.074219 216.113281 C 153.167969 216.085938 153.261719 216.054688 153.355469 216.027344 C 153.542969 215.96875 153.730469 215.910156 153.917969 215.851562 C 154.011719 215.820312 154.105469 215.796875 154.199219 215.769531 C 154.292969 215.742188 154.386719 215.71875 154.480469 215.691406 C 154.667969 215.640625 154.855469 215.59375 155.042969 215.542969 C 155.230469 215.492188 155.417969 215.453125 155.605469 215.410156 C 155.792969 215.367188 155.976562 215.324219 156.164062 215.28125 C 156.351562 215.246094 156.539062 215.210938 156.722656 215.175781 C 156.910156 215.140625 157.09375 215.105469 157.28125 215.070312 C 157.464844 215.042969 157.652344 215.015625 157.835938 214.988281 C 159.3125 214.773438 160.757812 214.664062 162.148438 214.652344 C 163.539062 214.644531 164.878906 214.71875 166.152344 214.855469 C 168.699219 215.121094 170.976562 215.613281 172.964844 216.121094 C 173.957031 216.382812 174.878906 216.636719 175.722656 216.898438 C 176.148438 217.027344 176.550781 217.15625 176.9375 217.28125 C 177.324219 217.402344 177.6875 217.527344 178.035156 217.640625 C 178.730469 217.875 179.34375 218.089844 179.878906 218.285156 C 180.414062 218.476562 180.867188 218.644531 181.234375 218.78125 C 181.601562 218.917969 181.878906 219.027344 182.070312 219.097656 C 182.257812 219.171875 182.355469 219.207031 182.355469 219.207031 C 182.355469 219.207031 181.949219 219.121094 181.179688 218.960938 C 180.796875 218.878906 180.328125 218.777344 179.773438 218.664062 C 179.496094 218.605469 179.195312 218.542969 178.878906 218.476562 C 178.558594 218.410156 178.222656 218.335938 177.867188 218.265625 C 176.4375 217.980469 174.703125 217.640625 172.714844 217.339844 C 171.71875 217.1875 170.65625 217.050781 169.539062 216.9375 C 169.261719 216.914062 168.976562 216.882812 168.691406 216.859375 C 168.40625 216.839844 168.117188 216.816406 167.824219 216.792969 C 167.53125 216.777344 167.234375 216.761719 166.933594 216.746094 C 166.785156 216.734375 166.636719 216.730469 166.484375 216.730469 C 166.332031 216.722656 166.179688 216.71875 166.027344 216.714844 C 164.808594 216.6875 163.539062 216.703125 162.238281 216.808594 C 160.941406 216.914062 159.605469 217.085938 158.265625 217.375 C 158.097656 217.410156 157.929688 217.445312 157.757812 217.480469 C 157.59375 217.523438 157.425781 217.566406 157.253906 217.605469 C 157.085938 217.648438 156.917969 217.6875 156.75 217.730469 C 156.582031 217.78125 156.414062 217.828125 156.242188 217.878906 C 156.074219 217.925781 155.90625 217.96875 155.738281 218.023438 C 155.570312 218.078125 155.402344 218.132812 155.234375 218.1875 C 155.148438 218.214844 155.066406 218.242188 154.980469 218.269531 C 154.894531 218.296875 154.808594 218.324219 154.726562 218.359375 C 154.558594 218.417969 154.390625 218.480469 154.222656 218.542969 L 153.972656 218.632812 L 153.84375 218.679688 L 153.71875 218.730469 C 153.554688 218.800781 153.386719 218.871094 153.21875 218.9375 C 152.882812 219.066406 152.554688 219.226562 152.21875 219.375 C 151.882812 219.523438 151.570312 219.6875 151.246094 219.847656 L 151.003906 219.96875 C 150.964844 219.984375 150.921875 220.007812 150.878906 220.03125 L 150.753906 220.101562 C 150.582031 220.195312 150.410156 220.289062 150.238281 220.382812 L 149.980469 220.523438 L 149.949219 220.539062 C 149.914062 220.558594 149.960938 220.53125 149.933594 220.546875 L 149.8125 220.609375 C 149.738281 220.648438 149.644531 220.6875 149.558594 220.722656 C 149.515625 220.742188 149.464844 220.757812 149.414062 220.773438 C 149.363281 220.789062 149.3125 220.804688 149.261719 220.820312 C 149.203125 220.832031 149.148438 220.84375 149.089844 220.855469 C 149.0625 220.859375 149.035156 220.867188 149.003906 220.871094 L 148.910156 220.882812 C 148.84375 220.886719 148.785156 220.894531 148.714844 220.894531 C 148.640625 220.894531 148.570312 220.894531 148.496094 220.886719 C 148.425781 220.882812 148.339844 220.871094 148.261719 220.859375 C 148.1875 220.84375 148.101562 220.820312 148.015625 220.792969 C 147.976562 220.78125 147.933594 220.765625 147.894531 220.75 C 147.851562 220.734375 147.808594 220.714844 147.765625 220.695312 C 147.679688 220.648438 147.597656 220.609375 147.519531 220.550781 C 147.441406 220.496094 147.359375 220.4375 147.289062 220.375 C 147.222656 220.304688 147.15625 220.238281 147.09375 220.164062 C 147.039062 220.09375 146.984375 220.015625 146.9375 219.941406 C 146.914062 219.902344 146.894531 219.863281 146.875 219.828125 C 146.855469 219.792969 146.835938 219.753906 146.820312 219.714844 C 146.804688 219.679688 146.785156 219.640625 146.773438 219.605469 C 146.761719 219.570312 146.75 219.535156 146.738281 219.496094 C 146.726562 219.464844 146.714844 219.425781 146.703125 219.390625 C 146.695312 219.359375 146.6875 219.320312 146.675781 219.277344 C 146.660156 219.195312 146.648438 219.109375 146.640625 219.027344 C 146.632812 218.972656 146.632812 218.964844 146.632812 218.953125 L 146.628906 218.917969 L 146.628906 218.878906 C 146.628906 218.9375 146.625 218.761719 146.625 218.765625 L 146.617188 218.394531 C 146.605469 217.601562 146.59375 216.808594 146.582031 216.003906 C 146.570312 215.203125 146.558594 214.398438 146.550781 213.585938 C 146.542969 212.777344 146.53125 211.960938 146.523438 211.144531 C 146.496094 207.871094 146.480469 204.550781 146.480469 201.226562 C 146.480469 197.90625 146.496094 194.582031 146.527344 191.3125 C 146.535156 190.492188 146.542969 189.679688 146.554688 188.867188 C 146.5625 188.058594 146.574219 187.25 146.585938 186.449219 C 146.589844 186.050781 146.597656 185.648438 146.601562 185.25 C 146.605469 185.050781 146.609375 184.855469 146.613281 184.65625 L 146.617188 184.355469 L 146.617188 184.320312 L 146.621094 184.242188 C 146.621094 184.191406 146.625 184.136719 146.628906 184.082031 C 146.640625 183.984375 146.65625 183.886719 146.671875 183.792969 C 146.746094 183.425781 146.867188 183.125 147.011719 182.84375 C 147.15625 182.570312 147.324219 182.324219 147.523438 182.089844 C 147.621094 181.972656 147.726562 181.859375 147.84375 181.753906 C 147.902344 181.699219 147.960938 181.648438 148.023438 181.597656 C 148.089844 181.542969 148.144531 181.5 148.238281 181.433594 C 148.28125 181.40625 148.328125 181.375 148.371094 181.347656 C 148.394531 181.332031 148.414062 181.320312 148.417969 181.316406 L 148.453125 181.300781 L 148.515625 181.261719 C 148.515625 181.261719 148.628906 181.199219 148.597656 181.21875 L 148.632812 181.199219 L 148.90625 181.0625 C 150.363281 180.324219 151.855469 179.710938 153.359375 179.238281 C 153.546875 179.179688 153.730469 179.121094 153.917969 179.0625 C 154.011719 179.03125 154.105469 179.007812 154.199219 178.980469 C 154.292969 178.957031 154.390625 178.929688 154.480469 178.90625 C 154.671875 178.855469 154.855469 178.804688 155.042969 178.753906 C 155.230469 178.707031 155.417969 178.667969 155.605469 178.625 C 155.792969 178.582031 155.980469 178.539062 156.164062 178.496094 C 156.351562 178.457031 156.539062 178.425781 156.726562 178.386719 C 156.910156 178.351562 157.097656 178.320312 157.28125 178.285156 C 157.46875 178.257812 157.652344 178.230469 157.835938 178.199219 C 159.3125 177.984375 160.757812 177.875 162.148438 177.867188 C 163.539062 177.859375 164.878906 177.929688 166.152344 178.066406 C 167.421875 178.203125 168.632812 178.386719 169.765625 178.609375 C 170.050781 178.660156 170.328125 178.722656 170.605469 178.78125 C 170.882812 178.839844 171.152344 178.894531 171.417969 178.957031 C 171.683594 179.019531 171.945312 179.082031 172.203125 179.140625 C 172.460938 179.203125 172.714844 179.269531 172.964844 179.332031 C 173.957031 179.59375 174.878906 179.847656 175.722656 180.109375 C 176.570312 180.367188 177.339844 180.617188 178.035156 180.851562 C 178.726562 181.085938 179.34375 181.300781 179.878906 181.496094 C 180.414062 181.683594 180.867188 181.855469 181.234375 181.988281 C 181.601562 182.125 181.878906 182.234375 182.070312 182.308594 C 182.257812 182.378906 182.355469 182.417969 182.355469 182.417969 " fill-opacity="1" fill-rule="nonzero"/><path fill="#1976d2" d="M 175.988281 189.003906 C 175.988281 189.003906 175.898438 188.964844 175.738281 188.894531 C 175.574219 188.820312 175.332031 188.722656 175.023438 188.597656 C 174.714844 188.476562 174.335938 188.335938 173.902344 188.175781 C 173.46875 188.019531 172.976562 187.855469 172.4375 187.679688 C 171.894531 187.511719 171.304688 187.339844 170.679688 187.175781 C 170.054688 187.007812 169.390625 186.855469 168.699219 186.714844 C 168.007812 186.574219 167.289062 186.460938 166.558594 186.363281 C 165.824219 186.269531 165.078125 186.207031 164.332031 186.175781 C 163.585938 186.140625 162.835938 186.144531 162.101562 186.183594 C 162.011719 186.1875 161.917969 186.191406 161.828125 186.199219 C 161.738281 186.207031 161.644531 186.210938 161.554688 186.21875 C 161.464844 186.226562 161.375 186.234375 161.285156 186.242188 C 161.195312 186.25 161.105469 186.257812 161.015625 186.269531 C 160.65625 186.304688 160.304688 186.351562 159.957031 186.40625 C 159.265625 186.511719 158.601562 186.652344 157.980469 186.816406 C 157.359375 186.984375 156.777344 187.167969 156.25 187.363281 C 156.117188 187.414062 155.988281 187.460938 155.863281 187.511719 C 155.738281 187.5625 155.617188 187.613281 155.496094 187.660156 C 155.375 187.707031 155.261719 187.761719 155.152344 187.808594 C 155.039062 187.859375 154.929688 187.90625 154.828125 187.953125 C 154.410156 188.152344 154.050781 188.332031 153.757812 188.488281 C 153.613281 188.570312 153.484375 188.640625 153.371094 188.699219 C 153.257812 188.765625 153.164062 188.820312 153.085938 188.867188 C 152.933594 188.953125 152.847656 189.003906 152.847656 189.003906 C 152.847656 189.003906 152.921875 188.941406 153.0625 188.832031 C 153.132812 188.773438 153.21875 188.707031 153.320312 188.625 C 153.421875 188.546875 153.542969 188.460938 153.679688 188.363281 C 153.8125 188.261719 153.96875 188.164062 154.136719 188.046875 C 154.179688 188.019531 154.222656 187.988281 154.265625 187.960938 C 154.308594 187.933594 154.355469 187.90625 154.402344 187.878906 C 154.496094 187.820312 154.589844 187.761719 154.691406 187.699219 C 155.09375 187.464844 155.554688 187.199219 156.082031 186.964844 C 156.210938 186.902344 156.347656 186.84375 156.484375 186.78125 C 156.554688 186.753906 156.625 186.722656 156.695312 186.691406 C 156.765625 186.664062 156.835938 186.632812 156.910156 186.605469 C 157.054688 186.546875 157.203125 186.488281 157.355469 186.4375 C 157.507812 186.382812 157.660156 186.324219 157.816406 186.273438 C 158.449219 186.066406 159.128906 185.886719 159.839844 185.746094 C 160.195312 185.675781 160.5625 185.617188 160.929688 185.570312 C 161.023438 185.558594 161.117188 185.542969 161.210938 185.53125 C 161.304688 185.523438 161.394531 185.511719 161.488281 185.503906 C 161.585938 185.492188 161.679688 185.484375 161.773438 185.472656 C 161.867188 185.46875 161.960938 185.460938 162.058594 185.453125 C 162.816406 185.398438 163.59375 185.390625 164.363281 185.421875 C 165.136719 185.460938 165.90625 185.527344 166.65625 185.640625 C 167.035156 185.695312 167.40625 185.757812 167.769531 185.832031 C 167.953125 185.863281 168.132812 185.90625 168.3125 185.941406 C 168.488281 185.980469 168.667969 186.023438 168.84375 186.066406 C 169.542969 186.234375 170.214844 186.425781 170.839844 186.632812 C 171.152344 186.738281 171.457031 186.839844 171.746094 186.949219 C 172.039062 187.058594 172.316406 187.167969 172.582031 187.277344 C 172.847656 187.386719 173.101562 187.488281 173.339844 187.597656 C 173.578125 187.707031 173.804688 187.8125 174.015625 187.910156 C 174.433594 188.113281 174.792969 188.304688 175.085938 188.464844 C 175.378906 188.625 175.601562 188.761719 175.757812 188.855469 C 175.910156 188.949219 175.988281 189.003906 175.988281 189.003906 " fill-opacity="1" fill-rule="nonzero"/><path fill="#1976d2" d="M 175.988281 194.398438 C 175.988281 194.398438 175.898438 194.359375 175.738281 194.285156 C 175.574219 194.214844 175.332031 194.117188 175.023438 193.992188 C 174.714844 193.871094 174.335938 193.730469 173.902344 193.570312 C 173.46875 193.414062 172.976562 193.246094 172.4375 193.074219 C 171.894531 192.90625 171.304688 192.734375 170.679688 192.570312 C 170.054688 192.402344 169.390625 192.25 168.699219 192.109375 C 168.007812 191.96875 167.289062 191.851562 166.558594 191.757812 C 165.824219 191.664062 165.078125 191.597656 164.332031 191.570312 C 163.585938 191.535156 162.835938 191.539062 162.101562 191.578125 C 162.011719 191.582031 161.917969 191.589844 161.828125 191.59375 C 161.738281 191.601562 161.644531 191.605469 161.554688 191.613281 C 161.464844 191.621094 161.375 191.628906 161.285156 191.636719 C 161.195312 191.644531 161.105469 191.652344 161.015625 191.664062 C 160.65625 191.699219 160.304688 191.746094 159.957031 191.800781 C 159.265625 191.90625 158.601562 192.046875 157.980469 192.210938 C 157.359375 192.378906 156.777344 192.5625 156.25 192.757812 C 156.117188 192.808594 155.988281 192.855469 155.863281 192.90625 C 155.738281 192.957031 155.617188 193.007812 155.496094 193.054688 C 155.375 193.101562 155.261719 193.152344 155.152344 193.203125 C 155.039062 193.253906 154.929688 193.300781 154.828125 193.347656 C 154.410156 193.546875 154.050781 193.726562 153.757812 193.882812 C 153.613281 193.964844 153.484375 194.035156 153.371094 194.097656 C 153.257812 194.160156 153.164062 194.214844 153.085938 194.261719 C 152.933594 194.347656 152.847656 194.398438 152.847656 194.398438 C 152.847656 194.398438 152.921875 194.335938 153.0625 194.222656 C 153.132812 194.167969 153.21875 194.101562 153.320312 194.019531 C 153.421875 193.941406 153.542969 193.855469 153.679688 193.753906 C 153.8125 193.65625 153.96875 193.554688 154.136719 193.441406 C 154.179688 193.414062 154.222656 193.382812 154.265625 193.355469 C 154.308594 193.328125 154.355469 193.300781 154.402344 193.269531 C 154.496094 193.214844 154.589844 193.15625 154.691406 193.09375 C 155.09375 192.859375 155.554688 192.597656 156.082031 192.359375 C 156.210938 192.292969 156.347656 192.238281 156.484375 192.175781 C 156.554688 192.148438 156.625 192.117188 156.695312 192.085938 C 156.765625 192.058594 156.835938 192.027344 156.910156 192 C 157.054688 191.941406 157.203125 191.882812 157.355469 191.828125 C 157.507812 191.777344 157.660156 191.71875 157.816406 191.667969 C 158.449219 191.460938 159.128906 191.28125 159.839844 191.140625 C 160.195312 191.070312 160.5625 191.011719 160.929688 190.964844 C 161.023438 190.949219 161.117188 190.9375 161.210938 190.925781 C 161.304688 190.917969 161.394531 190.90625 161.488281 190.894531 C 161.585938 190.886719 161.679688 190.878906 161.773438 190.871094 C 161.867188 190.863281 161.960938 190.855469 162.058594 190.847656 C 162.816406 190.789062 163.59375 190.785156 164.363281 190.816406 C 165.136719 190.851562 165.90625 190.921875 166.65625 191.035156 C 167.035156 191.089844 167.40625 191.152344 167.769531 191.226562 C 167.953125 191.261719 168.132812 191.300781 168.3125 191.335938 C 168.488281 191.375 168.667969 191.417969 168.84375 191.460938 C 169.542969 191.628906 170.214844 191.820312 170.839844 192.027344 C 171.152344 192.128906 171.457031 192.234375 171.746094 192.34375 C 172.039062 192.453125 172.316406 192.5625 172.582031 192.671875 C 172.847656 192.777344 173.101562 192.886719 173.339844 192.992188 C 173.578125 193.101562 173.804688 193.203125 174.015625 193.304688 C 174.433594 193.507812 174.792969 193.699219 175.085938 193.859375 C 175.378906 194.019531 175.601562 194.15625 175.757812 194.25 C 175.910156 194.34375 175.988281 194.398438 175.988281 194.398438 " fill-opacity="1" fill-rule="nonzero"/><path fill="#1976d2" d="M 175.988281 199.789062 C 175.988281 199.789062 175.898438 199.753906 175.738281 199.683594 C 175.574219 199.609375 175.332031 199.511719 175.023438 199.386719 C 174.714844 199.265625 174.335938 199.121094 173.902344 198.964844 C 173.46875 198.808594 172.976562 198.640625 172.4375 198.46875 C 171.894531 198.296875 171.304688 198.128906 170.679688 197.964844 C 170.054688 197.796875 169.390625 197.644531 168.699219 197.503906 C 168.007812 197.363281 167.289062 197.246094 166.558594 197.152344 C 165.824219 197.058594 165.078125 196.996094 164.332031 196.964844 C 163.585938 196.925781 162.835938 196.933594 162.101562 196.972656 C 162.011719 196.976562 161.917969 196.980469 161.828125 196.988281 C 161.738281 196.996094 161.644531 197 161.554688 197.007812 C 161.464844 197.015625 161.375 197.023438 161.285156 197.03125 C 161.195312 197.039062 161.105469 197.046875 161.015625 197.054688 C 160.65625 197.09375 160.304688 197.140625 159.957031 197.195312 C 159.265625 197.300781 158.601562 197.441406 157.980469 197.609375 C 157.359375 197.769531 156.777344 197.957031 156.25 198.152344 C 156.117188 198.203125 155.988281 198.25 155.863281 198.296875 C 155.738281 198.351562 155.617188 198.402344 155.496094 198.449219 C 155.375 198.496094 155.261719 198.546875 155.152344 198.597656 C 155.039062 198.644531 154.929688 198.691406 154.828125 198.742188 C 154.410156 198.941406 154.050781 199.117188 153.757812 199.277344 C 153.613281 199.355469 153.484375 199.429688 153.371094 199.488281 C 153.257812 199.554688 153.164062 199.609375 153.085938 199.652344 C 152.933594 199.742188 152.847656 199.789062 152.847656 199.789062 C 152.847656 199.789062 152.921875 199.730469 153.0625 199.617188 C 153.132812 199.5625 153.21875 199.496094 153.320312 199.414062 C 153.421875 199.335938 153.542969 199.25 153.679688 199.148438 C 153.8125 199.050781 153.96875 198.949219 154.136719 198.835938 C 154.179688 198.808594 154.222656 198.777344 154.265625 198.75 C 154.308594 198.722656 154.355469 198.695312 154.402344 198.664062 C 154.496094 198.609375 154.589844 198.550781 154.691406 198.488281 C 155.09375 198.253906 155.554688 197.988281 156.082031 197.75 C 156.210938 197.6875 156.347656 197.632812 156.484375 197.570312 C 156.554688 197.539062 156.625 197.511719 156.695312 197.480469 C 156.765625 197.453125 156.835938 197.421875 156.910156 197.394531 C 157.054688 197.335938 157.203125 197.277344 157.355469 197.226562 C 157.507812 197.171875 157.660156 197.113281 157.816406 197.0625 C 158.449219 196.855469 159.128906 196.671875 159.839844 196.535156 C 160.195312 196.464844 160.5625 196.40625 160.929688 196.355469 C 161.023438 196.347656 161.117188 196.332031 161.210938 196.320312 C 161.304688 196.308594 161.394531 196.300781 161.488281 196.289062 C 161.585938 196.28125 161.679688 196.273438 161.773438 196.265625 C 161.867188 196.253906 161.960938 196.25 162.058594 196.242188 C 162.816406 196.1875 163.59375 196.179688 164.363281 196.210938 C 165.136719 196.246094 165.90625 196.316406 166.65625 196.429688 C 167.035156 196.484375 167.40625 196.546875 167.769531 196.621094 C 167.953125 196.652344 168.132812 196.695312 168.3125 196.730469 C 168.488281 196.773438 168.667969 196.808594 168.84375 196.851562 C 169.542969 197.023438 170.214844 197.214844 170.839844 197.421875 C 171.152344 197.523438 171.457031 197.628906 171.746094 197.738281 C 172.039062 197.847656 172.316406 197.957031 172.582031 198.0625 C 172.847656 198.171875 173.101562 198.28125 173.339844 198.386719 C 173.578125 198.496094 173.804688 198.597656 174.015625 198.699219 C 174.433594 198.898438 174.792969 199.09375 175.085938 199.253906 C 175.378906 199.414062 175.601562 199.550781 175.757812 199.644531 C 175.910156 199.738281 175.988281 199.789062 175.988281 199.789062 " fill-opacity="1" fill-rule="nonzero"/><path fill="#1976d2" d="M 175.988281 205.183594 C 175.988281 205.183594 175.898438 205.148438 175.738281 205.074219 C 175.574219 205.003906 175.332031 204.90625 175.023438 204.78125 C 174.714844 204.660156 174.335938 204.515625 173.902344 204.359375 C 173.46875 204.203125 172.976562 204.035156 172.4375 203.863281 C 171.894531 203.691406 171.304688 203.523438 170.679688 203.355469 C 170.054688 203.191406 169.390625 203.039062 168.699219 202.898438 C 168.007812 202.757812 167.289062 202.640625 166.558594 202.546875 C 165.824219 202.453125 165.078125 202.386719 164.332031 202.355469 C 163.585938 202.320312 162.835938 202.328125 162.101562 202.367188 C 162.011719 202.371094 161.917969 202.375 161.828125 202.382812 C 161.738281 202.386719 161.644531 202.394531 161.554688 202.402344 C 161.464844 202.410156 161.375 202.414062 161.285156 202.421875 C 161.195312 202.433594 161.105469 202.441406 161.015625 202.449219 C 160.65625 202.484375 160.304688 202.535156 159.957031 202.589844 C 159.265625 202.695312 158.601562 202.835938 157.980469 203 C 157.359375 203.164062 156.777344 203.351562 156.25 203.542969 C 156.117188 203.59375 155.988281 203.644531 155.863281 203.691406 C 155.738281 203.746094 155.617188 203.796875 155.496094 203.84375 C 155.375 203.890625 155.261719 203.941406 155.152344 203.992188 C 155.039062 204.042969 154.929688 204.085938 154.828125 204.136719 C 154.410156 204.335938 154.050781 204.511719 153.757812 204.671875 C 153.613281 204.75 153.484375 204.824219 153.371094 204.882812 C 153.257812 204.949219 153.164062 205.003906 153.085938 205.046875 C 152.933594 205.136719 152.847656 205.183594 152.847656 205.183594 C 152.847656 205.183594 152.921875 205.125 153.0625 205.011719 C 153.132812 204.957031 153.21875 204.886719 153.320312 204.808594 C 153.421875 204.730469 153.542969 204.640625 153.679688 204.542969 C 153.8125 204.445312 153.96875 204.34375 154.136719 204.230469 C 154.179688 204.199219 154.222656 204.171875 154.265625 204.144531 C 154.308594 204.117188 154.355469 204.085938 154.402344 204.058594 C 154.496094 204.003906 154.589844 203.941406 154.691406 203.882812 C 155.09375 203.648438 155.554688 203.382812 156.082031 203.148438 C 156.210938 203.082031 156.347656 203.027344 156.484375 202.964844 C 156.554688 202.933594 156.625 202.90625 156.695312 202.875 C 156.765625 202.847656 156.835938 202.816406 156.910156 202.789062 C 157.054688 202.730469 157.203125 202.671875 157.355469 202.617188 C 157.507812 202.566406 157.660156 202.507812 157.816406 202.457031 C 158.449219 202.25 159.128906 202.070312 159.839844 201.929688 C 160.195312 201.859375 160.5625 201.800781 160.929688 201.75 C 161.023438 201.738281 161.117188 201.726562 161.210938 201.714844 C 161.304688 201.707031 161.394531 201.695312 161.488281 201.683594 C 161.585938 201.675781 161.679688 201.667969 161.773438 201.65625 C 161.867188 201.652344 161.960938 201.644531 162.058594 201.636719 C 162.816406 201.578125 163.59375 201.570312 164.363281 201.605469 C 165.136719 201.640625 165.90625 201.710938 166.65625 201.824219 C 167.035156 201.878906 167.40625 201.941406 167.769531 202.011719 C 167.953125 202.046875 168.132812 202.089844 168.3125 202.125 C 168.488281 202.164062 168.667969 202.207031 168.84375 202.246094 C 169.542969 202.417969 170.214844 202.609375 170.839844 202.816406 C 171.152344 202.917969 171.457031 203.023438 171.746094 203.132812 C 172.039062 203.242188 172.316406 203.347656 172.582031 203.457031 C 172.847656 203.566406 173.101562 203.671875 173.339844 203.78125 C 173.578125 203.886719 173.804688 203.992188 174.015625 204.09375 C 174.433594 204.292969 174.792969 204.484375 175.085938 204.648438 C 175.378906 204.804688 175.601562 204.945312 175.757812 205.039062 C 175.910156 205.132812 175.988281 205.183594 175.988281 205.183594 " fill-opacity="1" fill-rule="nonzero"/><path fill="#1976d2" d="M 175.988281 210.578125 C 175.988281 210.578125 175.898438 210.539062 175.738281 210.46875 C 175.574219 210.398438 175.332031 210.300781 175.023438 210.175781 C 174.714844 210.054688 174.335938 209.910156 173.902344 209.753906 C 173.46875 209.597656 172.976562 209.429688 172.4375 209.257812 C 171.894531 209.085938 171.304688 208.917969 170.679688 208.75 C 170.054688 208.585938 169.390625 208.433594 168.699219 208.292969 C 168.007812 208.152344 167.289062 208.035156 166.558594 207.941406 C 165.824219 207.847656 165.078125 207.78125 164.332031 207.75 C 163.585938 207.714844 162.835938 207.722656 162.101562 207.761719 C 162.011719 207.765625 161.917969 207.769531 161.828125 207.777344 C 161.738281 207.78125 161.644531 207.789062 161.554688 207.796875 C 161.464844 207.804688 161.375 207.8125 161.285156 207.816406 C 161.195312 207.828125 161.105469 207.835938 161.015625 207.84375 C 160.65625 207.878906 160.304688 207.929688 159.957031 207.980469 C 159.265625 208.089844 158.601562 208.230469 157.980469 208.394531 C 157.359375 208.5625 156.777344 208.746094 156.25 208.941406 C 156.117188 208.988281 155.988281 209.039062 155.863281 209.085938 C 155.738281 209.136719 155.617188 209.1875 155.496094 209.238281 C 155.375 209.285156 155.261719 209.335938 155.152344 209.386719 C 155.039062 209.433594 154.929688 209.480469 154.828125 209.53125 C 154.410156 209.726562 154.050781 209.90625 153.757812 210.066406 C 153.613281 210.144531 153.484375 210.21875 153.371094 210.277344 C 153.257812 210.34375 153.164062 210.398438 153.085938 210.441406 C 152.933594 210.53125 152.847656 210.578125 152.847656 210.578125 C 152.847656 210.578125 152.921875 210.519531 153.0625 210.40625 C 153.132812 210.351562 153.21875 210.28125 153.320312 210.203125 C 153.421875 210.125 153.542969 210.035156 153.679688 209.9375 C 153.8125 209.835938 153.96875 209.738281 154.136719 209.625 C 154.179688 209.597656 154.222656 209.566406 154.265625 209.539062 C 154.308594 209.507812 154.355469 209.480469 154.402344 209.453125 C 154.496094 209.394531 154.589844 209.335938 154.691406 209.277344 C 155.09375 209.039062 155.554688 208.777344 156.082031 208.539062 C 156.210938 208.476562 156.347656 208.421875 156.484375 208.359375 C 156.554688 208.332031 156.625 208.296875 156.695312 208.269531 C 156.765625 208.238281 156.835938 208.210938 156.910156 208.183594 C 157.054688 208.125 157.203125 208.066406 157.355469 208.011719 C 157.507812 207.960938 157.660156 207.898438 157.816406 207.851562 C 158.449219 207.644531 159.128906 207.464844 159.839844 207.324219 C 160.195312 207.253906 160.5625 207.195312 160.929688 207.144531 C 161.023438 207.132812 161.117188 207.121094 161.210938 207.109375 C 161.304688 207.097656 161.394531 207.089844 161.488281 207.078125 C 161.585938 207.070312 161.679688 207.058594 161.773438 207.050781 C 161.867188 207.046875 161.960938 207.039062 162.058594 207.03125 C 162.816406 206.972656 163.59375 206.964844 164.363281 207 C 165.136719 207.035156 165.90625 207.105469 166.65625 207.21875 C 167.035156 207.273438 167.40625 207.335938 167.769531 207.40625 C 167.953125 207.441406 168.132812 207.480469 168.3125 207.519531 C 168.488281 207.558594 168.667969 207.597656 168.84375 207.640625 C 169.542969 207.8125 170.214844 208.003906 170.839844 208.210938 C 171.152344 208.3125 171.457031 208.417969 171.746094 208.527344 C 172.039062 208.636719 172.316406 208.742188 172.582031 208.851562 C 172.847656 208.960938 173.101562 209.066406 173.339844 209.175781 C 173.578125 209.285156 173.804688 209.386719 174.015625 209.488281 C 174.433594 209.6875 174.792969 209.882812 175.085938 210.039062 C 175.378906 210.199219 175.601562 210.339844 175.757812 210.429688 C 175.910156 210.527344 175.988281 210.578125 175.988281 210.578125 " fill-opacity="1" fill-rule="nonzero"/><path fill="#1976d2" d="M 183.386719 182.511719 C 183.386719 182.511719 183.460938 183.039062 183.554688 183.960938 C 183.601562 184.421875 183.65625 184.984375 183.710938 185.625 C 183.765625 186.269531 183.820312 186.992188 183.875 187.785156 C 183.925781 188.574219 183.972656 189.433594 184.019531 190.335938 C 184.0625 191.242188 184.101562 192.199219 184.132812 193.1875 C 184.148438 193.679688 184.164062 194.183594 184.171875 194.691406 C 184.179688 194.945312 184.183594 195.203125 184.191406 195.460938 C 184.195312 195.71875 184.199219 195.976562 184.203125 196.234375 C 184.210938 196.753906 184.222656 197.277344 184.222656 197.800781 C 184.222656 198.328125 184.226562 198.855469 184.230469 199.382812 C 184.226562 200.4375 184.222656 201.492188 184.203125 202.527344 C 184.203125 202.789062 184.199219 203.046875 184.191406 203.304688 C 184.1875 203.558594 184.179688 203.816406 184.175781 204.070312 C 184.164062 204.578125 184.152344 205.082031 184.132812 205.574219 C 184.105469 206.5625 184.066406 207.519531 184.019531 208.425781 C 184 208.878906 183.972656 209.320312 183.953125 209.746094 C 183.925781 210.171875 183.898438 210.582031 183.875 210.980469 C 183.820312 211.769531 183.765625 212.496094 183.710938 213.136719 C 183.65625 213.78125 183.605469 214.339844 183.554688 214.800781 C 183.460938 215.722656 183.386719 216.25 183.386719 216.25 C 183.386719 216.25 183.3125 215.722656 183.214844 214.800781 C 183.167969 214.339844 183.113281 213.78125 183.058594 213.136719 C 183.003906 212.496094 182.949219 211.769531 182.898438 210.980469 C 182.871094 210.582031 182.847656 210.171875 182.820312 209.746094 C 182.796875 209.320312 182.773438 208.878906 182.75 208.425781 C 182.707031 207.519531 182.667969 206.5625 182.636719 205.574219 C 182.617188 205.082031 182.609375 204.578125 182.597656 204.070312 C 182.589844 203.816406 182.585938 203.558594 182.578125 203.304688 C 182.574219 203.046875 182.570312 202.789062 182.566406 202.527344 C 182.546875 201.492188 182.546875 200.4375 182.542969 199.382812 C 182.546875 198.855469 182.546875 198.328125 182.550781 197.800781 C 182.550781 197.277344 182.5625 196.753906 182.570312 196.234375 C 182.574219 195.976562 182.578125 195.71875 182.582031 195.460938 C 182.585938 195.203125 182.59375 194.945312 182.597656 194.691406 C 182.609375 194.183594 182.621094 193.679688 182.640625 193.1875 C 182.671875 192.199219 182.710938 191.242188 182.753906 190.335938 C 182.796875 189.433594 182.847656 188.574219 182.898438 187.785156 C 182.953125 186.992188 183.007812 186.269531 183.0625 185.625 C 183.117188 184.984375 183.167969 184.421875 183.21875 183.960938 C 183.3125 183.039062 183.386719 182.511719 183.386719 182.511719 " fill-opacity="1" fill-rule="nonzero"/><g fill="#1976d2" fill-opacity="1"><g transform="translate(112.726975, 301.745253)"><g><path d="M 9.484375 -19.828125 C 12.421875 -19.828125 15 -19.097656 17.21875 -17.640625 L 15.34375 -13.75 C 14.3125 -14.34375 13.207031 -14.832031 12.03125 -15.21875 C 10.863281 -15.601562 9.878906 -15.796875 9.078125 -15.796875 C 7.640625 -15.796875 6.921875 -15.316406 6.921875 -14.359375 C 6.921875 -13.742188 7.273438 -13.25 7.984375 -12.875 C 8.691406 -12.5 9.550781 -12.175781 10.5625 -11.90625 C 11.582031 -11.644531 12.597656 -11.320312 13.609375 -10.9375 C 14.628906 -10.550781 15.492188 -9.925781 16.203125 -9.0625 C 16.921875 -8.207031 17.28125 -7.128906 17.28125 -5.828125 C 17.28125 -3.941406 16.539062 -2.46875 15.0625 -1.40625 C 13.59375 -0.351562 11.71875 0.171875 9.4375 0.171875 C 7.8125 0.171875 6.203125 -0.109375 4.609375 -0.671875 C 3.023438 -1.234375 1.644531 -2 0.46875 -2.96875 L 2.40625 -6.796875 C 3.394531 -5.941406 4.5625 -5.238281 5.90625 -4.6875 C 7.25 -4.132812 8.441406 -3.859375 9.484375 -3.859375 C 10.296875 -3.859375 10.925781 -4.003906 11.375 -4.296875 C 11.820312 -4.585938 12.046875 -5.015625 12.046875 -5.578125 C 12.046875 -6.117188 11.785156 -6.566406 11.265625 -6.921875 C 10.753906 -7.285156 10.113281 -7.554688 9.34375 -7.734375 C 8.582031 -7.921875 7.753906 -8.160156 6.859375 -8.453125 C 5.960938 -8.753906 5.128906 -9.082031 4.359375 -9.4375 C 3.597656 -9.789062 2.960938 -10.351562 2.453125 -11.125 C 1.941406 -11.90625 1.6875 -12.835938 1.6875 -13.921875 C 1.6875 -15.710938 2.398438 -17.144531 3.828125 -18.21875 C 5.253906 -19.289062 7.140625 -19.828125 9.484375 -19.828125 Z M 9.484375 -19.828125 "/></g></g></g><g fill="#1976d2" fill-opacity="1"><g transform="translate(133.248535, 301.745253)"><g><path d="M 12.0625 -6.328125 L 12.0625 0 L 7.109375 0 L 7.109375 -6.1875 L -0.140625 -19.59375 L 4.84375 -19.59375 L 9.578125 -11.0625 L 14.203125 -19.59375 L 19.1875 -19.59375 Z M 12.0625 -6.328125 "/></g></g></g><g fill="#1976d2" fill-opacity="1"><g transform="translate(154.777965, 301.745253)"><g><path d="M 9.484375 -19.828125 C 12.421875 -19.828125 15 -19.097656 17.21875 -17.640625 L 15.34375 -13.75 C 14.3125 -14.34375 13.207031 -14.832031 12.03125 -15.21875 C 10.863281 -15.601562 9.878906 -15.796875 9.078125 -15.796875 C 7.640625 -15.796875 6.921875 -15.316406 6.921875 -14.359375 C 6.921875 -13.742188 7.273438 -13.25 7.984375 -12.875 C 8.691406 -12.5 9.550781 -12.175781 10.5625 -11.90625 C 11.582031 -11.644531 12.597656 -11.320312 13.609375 -10.9375 C 14.628906 -10.550781 15.492188 -9.925781 16.203125 -9.0625 C 16.921875 -8.207031 17.28125 -7.128906 17.28125 -5.828125 C 17.28125 -3.941406 16.539062 -2.46875 15.0625 -1.40625 C 13.59375 -0.351562 11.71875 0.171875 9.4375 0.171875 C 7.8125 0.171875 6.203125 -0.109375 4.609375 -0.671875 C 3.023438 -1.234375 1.644531 -2 0.46875 -2.96875 L 2.40625 -6.796875 C 3.394531 -5.941406 4.5625 -5.238281 5.90625 -4.6875 C 7.25 -4.132812 8.441406 -3.859375 9.484375 -3.859375 C 10.296875 -3.859375 10.925781 -4.003906 11.375 -4.296875 C 11.820312 -4.585938 12.046875 -5.015625 12.046875 -5.578125 C 12.046875 -6.117188 11.785156 -6.566406 11.265625 -6.921875 C 10.753906 -7.285156 10.113281 -7.554688 9.34375 -7.734375 C 8.582031 -7.921875 7.753906 -8.160156 6.859375 -8.453125 C 5.960938 -8.753906 5.128906 -9.082031 4.359375 -9.4375 C 3.597656 -9.789062 2.960938 -10.351562 2.453125 -11.125 C 1.941406 -11.90625 1.6875 -12.835938 1.6875 -13.921875 C 1.6875 -15.710938 2.398438 -17.144531 3.828125 -18.21875 C 5.253906 -19.289062 7.140625 -19.828125 9.484375 -19.828125 Z M 9.484375 -19.828125 "/></g></g></g><g fill="#1976d2" fill-opacity="1"><g transform="translate(175.299523, 301.745253)"><g><path d="M 16.9375 -15.59375 L 11.03125 -15.59375 L 11.03125 0 L 6.046875 0 L 6.046875 -15.59375 L 0.203125 -15.59375 L 0.203125 -19.625 L 16.9375 -19.625 Z M 16.9375 -15.59375 "/></g></g></g><g fill="#1976d2" fill-opacity="1"><g transform="translate(194.897215, 301.745253)"><g><path d="M 17.296875 -15.6875 L 6.9375 -15.6875 L 6.9375 -11.78125 L 16.296875 -11.78125 L 16.296875 -7.875 L 6.9375 -7.875 L 6.9375 -3.921875 L 17.609375 -3.921875 L 17.609375 0 L 1.953125 0 L 1.953125 -19.59375 L 17.296875 -19.59375 Z M 17.296875 -15.6875 "/></g></g></g><g fill="#1976d2" fill-opacity="1"><g transform="translate(216.258669, 301.745253)"><g><path d="M 23.484375 0 L 19.09375 0 L 19.0625 -12.734375 L 14.359375 -1.953125 L 11.109375 -1.953125 L 6.40625 -12.734375 L 6.40625 0 L 1.953125 0 L 1.953125 -19.625 L 7.421875 -19.625 L 12.734375 -7.953125 L 18.0625 -19.625 L 23.484375 -19.625 Z M 23.484375 0 "/></g></g></g><g fill="#1976d2" fill-opacity="1"><g transform="translate(244.227226, 301.745253)"><g><path d="M 9.484375 -19.828125 C 12.421875 -19.828125 15 -19.097656 17.21875 -17.640625 L 15.34375 -13.75 C 14.3125 -14.34375 13.207031 -14.832031 12.03125 -15.21875 C 10.863281 -15.601562 9.878906 -15.796875 9.078125 -15.796875 C 7.640625 -15.796875 6.921875 -15.316406 6.921875 -14.359375 C 6.921875 -13.742188 7.273438 -13.25 7.984375 -12.875 C 8.691406 -12.5 9.550781 -12.175781 10.5625 -11.90625 C 11.582031 -11.644531 12.597656 -11.320312 13.609375 -10.9375 C 14.628906 -10.550781 15.492188 -9.925781 16.203125 -9.0625 C 16.921875 -8.207031 17.28125 -7.128906 17.28125 -5.828125 C 17.28125 -3.941406 16.539062 -2.46875 15.0625 -1.40625 C 13.59375 -0.351562 11.71875 0.171875 9.4375 0.171875 C 7.8125 0.171875 6.203125 -0.109375 4.609375 -0.671875 C 3.023438 -1.234375 1.644531 -2 0.46875 -2.96875 L 2.40625 -6.796875 C 3.394531 -5.941406 4.5625 -5.238281 5.90625 -4.6875 C 7.25 -4.132812 8.441406 -3.859375 9.484375 -3.859375 C 10.296875 -3.859375 10.925781 -4.003906 11.375 -4.296875 C 11.820312 -4.585938 12.046875 -5.015625 12.046875 -5.578125 C 12.046875 -6.117188 11.785156 -6.566406 11.265625 -6.921875 C 10.753906 -7.285156 10.113281 -7.554688 9.34375 -7.734375 C 8.582031 -7.921875 7.753906 -8.160156 6.859375 -8.453125 C 5.960938 -8.753906 5.128906 -9.082031 4.359375 -9.4375 C 3.597656 -9.789062 2.960938 -10.351562 2.453125 -11.125 C 1.941406 -11.90625 1.6875 -12.835938 1.6875 -13.921875 C 1.6875 -15.710938 2.398438 -17.144531 3.828125 -18.21875 C 5.253906 -19.289062 7.140625 -19.828125 9.484375 -19.828125 Z M 9.484375 -19.828125 "/></g></g></g><g fill="#1976d2" fill-opacity="1"><g transform="translate(92.867066, 149.117049)"><g><path d="M -9.53125 -14.390625 C -8.351562 -16.367188 -6.820312 -17.816406 -4.9375 -18.734375 L -3.078125 -15.890625 C -3.898438 -15.429688 -4.671875 -14.882812 -5.390625 -14.25 C -6.117188 -13.625 -6.648438 -13.035156 -6.984375 -12.484375 C -7.554688 -11.523438 -7.519531 -10.851562 -6.875 -10.46875 C -6.46875 -10.21875 -5.992188 -10.253906 -5.453125 -10.578125 C -4.921875 -10.898438 -4.359375 -11.347656 -3.765625 -11.921875 C -3.179688 -12.503906 -2.550781 -13.0625 -1.875 -13.59375 C -1.207031 -14.132812 -0.441406 -14.46875 0.421875 -14.59375 C 1.296875 -14.726562 2.171875 -14.53125 3.046875 -14 C 4.304688 -13.25 4.992188 -12.160156 5.109375 -10.734375 C 5.234375 -9.304688 4.832031 -7.828125 3.90625 -6.296875 C 3.257812 -5.203125 2.425781 -4.234375 1.40625 -3.390625 C 0.394531 -2.546875 -0.675781 -1.925781 -1.8125 -1.53125 L -3.609375 -4.375 C -2.628906 -4.6875 -1.679688 -5.179688 -0.765625 -5.859375 C 0.140625 -6.546875 0.804688 -7.242188 1.234375 -7.953125 C 1.554688 -8.503906 1.707031 -8.984375 1.6875 -9.390625 C 1.675781 -9.804688 1.484375 -10.128906 1.109375 -10.359375 C 0.742188 -10.578125 0.332031 -10.585938 -0.125 -10.390625 C -0.582031 -10.191406 -1.023438 -9.867188 -1.453125 -9.421875 C -1.878906 -8.984375 -2.375 -8.519531 -2.9375 -8.03125 C -3.5 -7.550781 -4.050781 -7.125 -4.59375 -6.75 C -5.144531 -6.375 -5.785156 -6.164062 -6.515625 -6.125 C -7.242188 -6.09375 -7.976562 -6.300781 -8.71875 -6.75 C -9.914062 -7.46875 -10.585938 -8.523438 -10.734375 -9.921875 C -10.878906 -11.316406 -10.476562 -12.804688 -9.53125 -14.390625 Z M -9.53125 -14.390625 "/></g></g></g><g fill="#1976d2" fill-opacity="1"><g transform="translate(100.379046, 136.219873)"><g><path d="M 11.984375 -14.03125 L 9.734375 -11.40625 L 2.109375 -17.890625 L 6.15625 -9.578125 L 4.5 -7.640625 L -4.359375 -10.328125 L 3.265625 -3.828125 L 1 -1.171875 L -10.734375 -11.1875 L -7.953125 -14.453125 L 1.75 -11.6875 L -2.53125 -20.8125 L 0.25 -24.046875 Z M 11.984375 -14.03125 "/></g></g></g><g fill="#1976d2" fill-opacity="1"><g transform="translate(113.933449, 120.637664)"><g><path d="M 7.3125 -9.640625 L 2.09375 -5.390625 L 3.03125 -2.484375 L -0.078125 0.0625 L -4.6875 -16.0625 L -1.578125 -18.625 L 13.203125 -10.78125 L 9.96875 -8.140625 Z M 4.5625 -11.21875 L -0.765625 -14.234375 L 1.125 -8.421875 Z M 4.5625 -11.21875 "/></g></g></g><g fill="#1976d2" fill-opacity="1"><g transform="translate(127.719821, 109.504659)"><g><path d="M 9.375 -5.421875 L 5.21875 -8.015625 L 5.125 -7.96875 L 2.546875 -6.484375 L 4.71875 -2.734375 L 1.34375 -0.78125 L -6.359375 -14.125 L -0.40625 -17.5625 C 1.363281 -18.582031 2.960938 -18.96875 4.390625 -18.71875 C 5.816406 -18.46875 6.960938 -17.597656 7.828125 -16.109375 C 9.015625 -14.054688 9.03125 -12.15625 7.875 -10.40625 L 13.21875 -7.640625 Z M 1.015625 -9.140625 L 3.59375 -10.625 C 4.332031 -11.050781 4.796875 -11.566406 4.984375 -12.171875 C 5.179688 -12.773438 5.078125 -13.429688 4.671875 -14.140625 C 4.273438 -14.828125 3.769531 -15.226562 3.15625 -15.34375 C 2.550781 -15.457031 1.878906 -15.300781 1.140625 -14.875 L -1.4375 -13.390625 Z M 1.015625 -9.140625 "/></g></g></g><g fill="#1976d2" fill-opacity="1"><g transform="translate(142.368519, 101.227711)"><g><path d="M 7.859375 -16.296875 L 3.546875 -14.59375 L 8.0625 -3.203125 L 4.421875 -1.75 L -0.09375 -13.140625 L -4.375 -11.453125 L -5.546875 -14.40625 L 6.6875 -19.25 Z M 7.859375 -16.296875 "/></g></g></g><g fill="#1976d2" fill-opacity="1"><g transform="translate(156.152634, 96.054577)"><g/></g></g><g fill="#1976d2" fill-opacity="1"><g transform="translate(162.213433, 94.125696)"><g><path d="M 11.265625 -14.46875 L 3.25 -13.0625 L 3.78125 -10.0625 L 11.015625 -11.328125 L 11.546875 -8.296875 L 4.3125 -7.03125 L 4.84375 -3.96875 L 13.109375 -5.421875 L 13.640625 -2.390625 L 1.53125 -0.265625 L -1.125 -15.4375 L 10.734375 -17.515625 Z M 11.265625 -14.46875 "/></g></g></g><g fill="#1976d2" fill-opacity="1"><g transform="translate(177.633866, 91.41365)"><g><path d="M 1.296875 -15.4375 L 7.90625 -15.546875 C 10.332031 -15.585938 12.3125 -14.90625 13.84375 -13.5 C 15.382812 -12.09375 16.175781 -10.25 16.21875 -7.96875 C 16.25 -5.695312 15.503906 -3.832031 13.984375 -2.375 C 12.472656 -0.925781 10.484375 -0.179688 8.015625 -0.140625 L 1.546875 -0.03125 Z M 5.25 -12.375 L 5.40625 -3.21875 L 8.203125 -3.265625 C 9.398438 -3.285156 10.375 -3.722656 11.125 -4.578125 C 11.882812 -5.429688 12.253906 -6.53125 12.234375 -7.875 C 12.210938 -9.226562 11.789062 -10.328125 10.96875 -11.171875 C 10.144531 -12.023438 9.113281 -12.441406 7.875 -12.421875 Z M 5.25 -12.375 "/></g></g></g><g fill="#1976d2" fill-opacity="1"><g transform="translate(195.265061, 91.189238)"><g><path d="M 17.5 -12.96875 L 16.1875 -4.125 C 15.882812 -2.113281 15.019531 -0.613281 13.59375 0.375 C 12.164062 1.375 10.382812 1.71875 8.25 1.40625 C 6.101562 1.082031 4.484375 0.238281 3.390625 -1.125 C 2.304688 -2.5 1.914062 -4.191406 2.21875 -6.203125 L 3.53125 -15.046875 L 7.390625 -14.46875 L 6.078125 -5.625 C 5.921875 -4.613281 6.09375 -3.765625 6.59375 -3.078125 C 7.09375 -2.390625 7.816406 -1.976562 8.765625 -1.84375 C 9.691406 -1.707031 10.476562 -1.894531 11.125 -2.40625 C 11.769531 -2.914062 12.171875 -3.679688 12.328125 -4.703125 L 13.640625 -13.546875 Z M 17.5 -12.96875 "/></g></g></g><g fill="#1976d2" fill-opacity="1"><g transform="translate(212.544147, 93.881733)"><g><path d="M 13 -12.1875 C 14.09375 -11.84375 15.097656 -11.28125 16.015625 -10.5 C 16.929688 -9.71875 17.644531 -8.835938 18.15625 -7.859375 L 15.1875 -5.96875 C 14.90625 -6.695312 14.484375 -7.335938 13.921875 -7.890625 C 13.359375 -8.453125 12.75 -8.832031 12.09375 -9.03125 C 10.925781 -9.40625 9.820312 -9.304688 8.78125 -8.734375 C 7.75 -8.160156 7.039062 -7.269531 6.65625 -6.0625 C 6.28125 -4.84375 6.347656 -3.691406 6.859375 -2.609375 C 7.378906 -1.535156 8.222656 -0.8125 9.390625 -0.4375 C 10.003906 -0.25 10.691406 -0.207031 11.453125 -0.3125 C 12.210938 -0.414062 12.9375 -0.648438 13.625 -1.015625 L 15.09375 1.984375 C 14.03125 2.546875 12.878906 2.894531 11.640625 3.03125 C 10.410156 3.175781 9.257812 3.082031 8.1875 2.75 C 5.96875 2.050781 4.347656 0.753906 3.328125 -1.140625 C 2.316406 -3.046875 2.148438 -5.078125 2.828125 -7.234375 C 3.484375 -9.335938 4.785156 -10.863281 6.734375 -11.8125 C 8.679688 -12.757812 10.769531 -12.882812 13 -12.1875 Z M 13 -12.1875 "/></g></g></g><g fill="#1976d2" fill-opacity="1"><g transform="translate(227.842369, 98.690121)"><g><path d="M 11.796875 2.703125 L 5.765625 -0.296875 L 3.515625 1.75 L -0.09375 -0.046875 L 12.734375 -10.859375 L 16.34375 -9.0625 L 15.25 7.609375 L 11.515625 5.75 Z M 12.09375 -0.453125 L 12.671875 -6.515625 L 8.125 -2.4375 Z M 12.09375 -0.453125 "/></g></g></g><g fill="#1976d2" fill-opacity="1"><g transform="translate(243.676725, 106.82015)"><g><path d="M 17.9375 -2.34375 L 14.15625 -5.015625 L 7.09375 5 L 3.890625 2.734375 L 10.953125 -7.28125 L 7.1875 -9.921875 L 9.015625 -12.515625 L 19.765625 -4.9375 Z M 17.9375 -2.34375 "/></g></g></g><g fill="#1976d2" fill-opacity="1"><g transform="translate(255.517674, 115.455182)"><g><path d="M 4.09375 3.59375 L 1.15625 1.015625 L 11.328125 -10.546875 L 14.265625 -7.96875 Z M 4.09375 3.59375 "/></g></g></g><g fill="#1976d2" fill-opacity="1"><g transform="translate(261.767828, 120.592768)"><g><path d="M 17.5 -3.65625 C 19.082031 -1.851562 19.835938 0.128906 19.765625 2.296875 C 19.703125 4.460938 18.832031 6.285156 17.15625 7.765625 C 15.476562 9.242188 13.546875 9.882812 11.359375 9.6875 C 9.179688 9.5 7.304688 8.515625 5.734375 6.734375 C 4.160156 4.953125 3.410156 2.972656 3.484375 0.796875 C 3.566406 -1.378906 4.453125 -3.21875 6.140625 -4.71875 C 7.828125 -6.207031 9.75 -6.847656 11.90625 -6.640625 C 14.0625 -6.429688 15.925781 -5.4375 17.5 -3.65625 Z M 15.078125 -1.453125 C 14.273438 -2.359375 13.265625 -2.84375 12.046875 -2.90625 C 10.828125 -2.96875 9.734375 -2.566406 8.765625 -1.703125 C 7.804688 -0.847656 7.273438 0.191406 7.171875 1.421875 C 7.078125 2.648438 7.421875 3.707031 8.203125 4.59375 C 8.992188 5.488281 10 5.953125 11.21875 5.984375 C 12.4375 6.023438 13.523438 5.613281 14.484375 4.75 C 15.453125 3.894531 15.988281 2.867188 16.09375 1.671875 C 16.195312 0.484375 15.859375 -0.554688 15.078125 -1.453125 Z M 15.078125 -1.453125 "/></g></g></g><g fill="#1976d2" fill-opacity="1"><g transform="translate(273.905868, 134.443989)"><g><path d="M 8.265625 13.40625 L 6.453125 10.46875 L 10.8125 -0.546875 L 2.734375 4.4375 L 0.8125 1.3125 L 13.921875 -6.78125 L 15.734375 -3.84375 L 11.375 7.203125 L 19.46875 2.203125 L 21.375 5.3125 Z M 8.265625 13.40625 "/></g></g></g><g clip-path="url(#id2)"><path fill="#1976d2" d="M 187.546875 330.34375 C 112.964844 330.34375 52.21875 269.597656 52.21875 194.921875 C 52.21875 120.25 112.964844 59.59375 187.546875 59.59375 C 262.128906 59.59375 322.875 120.339844 322.875 194.921875 C 322.96875 269.597656 262.222656 330.34375 187.546875 330.34375 Z M 187.546875 61.882812 C 114.15625 61.882812 54.507812 121.53125 54.507812 194.921875 C 54.507812 268.3125 114.246094 328.054688 187.546875 328.054688 C 260.847656 328.054688 320.675781 268.3125 320.675781 194.921875 C 320.675781 121.53125 260.9375 61.882812 187.546875 61.882812 Z M 187.546875 61.882812 " fill-opacity="1" fill-rule="nonzero"/></g></svg>